<svg clip-rule="evenodd" fill-rule="evenodd" stroke-linejoin="round" stroke-miterlimit="2" viewBox="0 0 30 47" xmlns="http://www.w3.org/2000/svg" xmlns:xlink="http://www.w3.org/1999/xlink"><linearGradient id="a"><stop offset="0" stop-color="#d93b0c"/><stop offset="1" stop-color="#ff7243"/></linearGradient><linearGradient id="b" gradientTransform="matrix(0 -41.0165 41.0165 0 488.707 462.517)" gradientUnits="userSpaceOnUse" x1="0" x2="1" xlink:href="#a" y1="0" y2="0"/><linearGradient id="c" gradientTransform="matrix(0 -6.55354 28.2443 0 459.332 427.28)" gradientUnits="userSpaceOnUse" x1="0" x2="1" xlink:href="#a" y1="0" y2="0"/><linearGradient id="d" gradientTransform="matrix(22.3744 9.40738 -9.39344 22.4076 446.15 418.15)" gradientUnits="userSpaceOnUse" x1="0" x2="1" y1="0" y2="0"><stop offset="0" stop-color="#75ff00"/><stop offset="1" stop-color="#ff43ca"/></linearGradient><path d="m472.633 425.096c0-3.879 6.592-7.028 14.712-7.028 8.119 0 14.712 3.149 14.712 7.028v32.127c0 3.879-6.593 7.028-14.712 7.028-8.12 0-14.712-3.149-14.712-7.028z" fill="url(#b)" transform="translate(-472.6336 -418.068)"/><ellipse cx="458.394" cy="423.868" fill="url(#c)" rx="10.131" ry="3.69" transform="matrix(1.00148 0 0 1 -444.36327 -418.068)"/><ellipse cx="458.394" cy="423.868" fill="url(#d)" rx="10.131" ry="3.69" transform="matrix(.292927 0 0 .292493 -119.565 -118.178)"/></svg>