<svg clip-rule="evenodd" fill-rule="evenodd" stroke-linecap="round" stroke-linejoin="round" stroke-miterlimit="1.5" viewBox="0 0 46 41" xmlns="http://www.w3.org/2000/svg" xmlns:xlink="http://www.w3.org/1999/xlink"><linearGradient id="a" gradientTransform="matrix(0 40.9808 -47.9618 0 476.95 491.138)" gradientUnits="userSpaceOnUse" x1="0" x2="1" y1="0" y2="0"><stop offset="0" stop-color="#ff7243"/><stop offset="1" stop-color="#d93b0c"/></linearGradient><linearGradient id="b" gradientTransform="matrix(0 1.47805 -35.2127 0 478.017 525.885)" gradientUnits="userSpaceOnUse" x1="0" x2="1" y1="0" y2="0"><stop offset="0" stop-opacity="0"/><stop offset="1" stop-opacity=".57"/></linearGradient><linearGradient id="c" gradientUnits="userSpaceOnUse" x1="464.107" x2="471.60458" y1="515.678" y2="515.678"><stop offset="0" stop-color="#1a1a1a"/><stop offset="1" stop-opacity="0"/></linearGradient><g transform="translate(-445.5336 -490.554)"><path d="m489.585 495.71c0-2.523-1.585-4.572-3.538-4.572h-18.195c-1.953 0-3.538 2.049-3.538 4.572v31.837c0 2.523 1.585 4.572 3.538 4.572h18.195c1.953 0 3.538-2.049 3.538-4.572z" fill="url(#a)" transform="matrix(1 0 0 .773841 1.06759 119.759)"/><path d="m468.74 525.885h18.554v1.478h-18.554z" fill="url(#b)"/><g stroke="#1a1a1a" stroke-width=".8"><circle cx="478.0169" cy="512.74721" fill="#262626" r="10.47"/><circle cx="478.0169" cy="512.74721" fill="#1a1a1a" r="2.346"/></g></g><path d="m464.107 499.822h7.498v31.713h-7.498z" fill="url(#c)" transform="translate(-442.58456 -490.554)"/><g transform="translate(-465.3814 -490.554)"><path d="m489.585 494.676c0-1.953-1.585-3.538-3.538-3.538h-18.195c-1.953 0-3.538 1.585-3.538 3.538v33.905c0 1.952 1.585 3.538 3.538 3.538h18.195c1.953 0 3.538-1.586 3.538-3.538z" fill="url(#a)" transform="translate(1.06759 -.584264)"/><path d="m468.74 525.885h18.554v1.478h-18.554z" fill="url(#b)"/><g stroke="#1a1a1a"><circle cx="478.0169" cy="503.672" fill="#262626" r="10.47" stroke-width=".8"/><circle cx="478.0169" cy="503.672" fill="#1a1a1a" r="2.346" stroke-width=".8"/><circle cx="484.057609883" cy="519.87651304" fill="#262626" r="4.4295429" stroke-width=".7996023"/><circle cx="484.057609883" cy="519.87651304" fill="#1a1a1a" r=".99252222" stroke-width=".7996023"/></g></g></svg>