<svg clip-rule="evenodd" fill-rule="evenodd" stroke-linecap="round" stroke-miterlimit="1.5" viewBox="0 0 58 42" xmlns="http://www.w3.org/2000/svg" xmlns:xlink="http://www.w3.org/1999/xlink"><linearGradient id="a"><stop offset="0" stop-color="#ff7243"/><stop offset="1" stop-color="#d93b0c"/></linearGradient><linearGradient id="b" gradientUnits="userSpaceOnUse" x1="421.974" x2="426.45143" xlink:href="#a" y1="594.78" y2="594.78"/><linearGradient id="c" gradientTransform="matrix(55.8391 0 0 6.5027 458.788 578.4)" gradientUnits="userSpaceOnUse" x1="0" x2="1" y1="0" y2="0"><stop offset="0" stop-color="#1a1a1a"/><stop offset="1" stop-color="#696969"/></linearGradient><linearGradient id="d" gradientTransform="matrix(55.8391 0 0 27.5046 458.788 578.4)" gradientUnits="userSpaceOnUse" x1="0" x2="1" xlink:href="#a" y1="0" y2="0"/><g transform="translate(-396.319 -563.746)"><path d="m423.983 596.502v-12.499h2.315v12.499c7.198.346 12.864 3.897 12.864 8.22 0 .282-.024.56-.071.834-.711-4.162-6.69-7.415-13.951-7.415-7.26 0-13.239 3.253-13.95 7.415-.047-.274-.071-.552-.071-.834 0-4.323 5.666-7.874 12.864-8.22z" fill="url(#b)"/><path d="m458.788 564.647h55.839v27.505h-55.839z" fill="url(#c)" stroke="url(#d)" transform="translate(-61.5674)"/></g></svg>