<svg clip-rule="evenodd" fill-rule="evenodd" stroke-linecap="round" stroke-miterlimit="1.5" viewBox="0 0 3843 2031" xmlns="http://www.w3.org/2000/svg" xmlns:xlink="http://www.w3.org/1999/xlink"><radialGradient id="a" cx="1327.04" cy="7477.29" gradientUnits="userSpaceOnUse" r="1588.58"><stop offset="0" stop-color="#1e1e1e"/><stop offset="1" stop-color="#3c3c3c"/></radialGradient><linearGradient id="b" gradientTransform="matrix(533.833 491.741 -491.741 533.833 1856.39 7233.38)" gradientUnits="userSpaceOnUse" x1="0" x2="1" y1="0" y2="0"><stop offset="0" stop-color="#ee592e"/><stop offset="1" stop-color="#ff8a68"/></linearGradient><linearGradient id="c"><stop offset="0" stop-color="#4d4d4d"/><stop offset="1" stop-color="#888"/></linearGradient><linearGradient id="d" gradientTransform="matrix(500.297 440.555 -440.555 500.297 7908.63 6938.12)" gradientUnits="userSpaceOnUse" x1="0" x2="1" xlink:href="#c" y1="0" y2="0"/><linearGradient id="e" gradientTransform="matrix(345.105 303.895 -303.895 345.105 7838.59 7197.17)" gradientUnits="userSpaceOnUse" x1="0" x2="1" xlink:href="#c" y1="0" y2="0"/><linearGradient id="f" gradientTransform="matrix(728.369 482.622 -482.622 728.369 6690.08 7423.25)" gradientUnits="userSpaceOnUse" x1="0" x2="1" y1="0" y2="0"><stop offset="0" stop-color="#fff" stop-opacity="0"/><stop offset=".52" stop-color="#fff" stop-opacity=".07"/><stop offset="1" stop-color="#fff" stop-opacity=".31"/></linearGradient><linearGradient id="g" gradientTransform="matrix(0 -2263.18 2263.18 0 8701.56 8097.77)" gradientUnits="userSpaceOnUse" x1="0" x2="1" y1="0" y2="0"><stop offset="0" stop-color="#ee592e"/><stop offset=".69" stop-color="#ffa683"/><stop offset="1" stop-color="#ff4000"/></linearGradient><linearGradient id="h" gradientTransform="matrix(0 -726.058 726.058 0 8701.56 7967.28)" gradientUnits="userSpaceOnUse" x1="0" x2="1" y1="0" y2="0"><stop offset="0" stop-opacity=".33"/><stop offset="1" stop-opacity="0"/></linearGradient><linearGradient id="i" gradientTransform="matrix(-36.9972 1666.5 -1666.5 -36.9972 7732.44 6581.66)" gradientUnits="userSpaceOnUse" x1="0" x2="1" y1="0" y2="0"><stop offset="0" stop-color="#ffcaa8"/><stop offset="1" stop-color="#ee592e"/></linearGradient><linearGradient id="j" gradientTransform="matrix(0 -2263.18 2263.18 0 8701.56 8097.77)" gradientUnits="userSpaceOnUse" x1="0" x2="1" y1="0" y2="0"><stop offset="0" stop-color="#ee592e"/><stop offset=".26" stop-color="#ffa683"/><stop offset="1" stop-color="#ff4000"/></linearGradient><clipPath id="k"><path clip-rule="evenodd" d="m2121.33 6683c438.39 0 794.29 355.91 794.29 794.29s-355.9 794.29-794.29 794.29c-438.38 0-794.29-355.91-794.29-794.29s355.91-794.29 794.29-794.29zm0 739c30.52 0 55.29 24.78 55.29 55.29 0 30.52-24.77 55.29-55.29 55.29-30.51 0-55.29-24.77-55.29-55.29 0-30.51 24.78-55.29 55.29-55.29z"/></clipPath><clipPath id="l"><path clip-rule="evenodd" d="m2121.33 7477.29 365.67-766.29 544 558z"/></clipPath><clipPath id="m"><path clip-rule="evenodd" d="m7594.93 6527.86h340.458v264.533h-340.458z"/></clipPath><clipPath id="n"><path clip-rule="evenodd" d="m6954.53 6475.48 181.25 332.47 994.23 18.86 281.31-301.3 415.75 173.19 142.66 1156.2-353.35 390.12-121.15-147.24h-200.31-1607.27l-437.08-858.1 615.28-858.09z"/></clipPath><g transform="translate(-201.9997 -6316.333)"><path d="m2121.33 6683c438.39 0 794.29 355.91 794.29 794.29s-355.9 794.29-794.29 794.29c-438.38 0-794.29-355.91-794.29-794.29s355.91-794.29 794.29-794.29zm0 739c30.52 0 55.29 24.78 55.29 55.29 0 30.52-24.77 55.29-55.29 55.29-30.51 0-55.29-24.77-55.29-55.29 0-30.51 24.78-55.29 55.29-55.29z" fill="url(#a)"/><g clip-path="url(#k)"><circle cx="2121.33" cy="7477.29" fill="url(#b)" r="208.292"/><path d="m3628 7804.38 101 723.62h-2218s-6.59-722.65 0-723.62c88.29 23.01 176.7 38.34 266 0 110.22-68.3 191.64-51.74 262 0 188.9 138.92 256.2 115.14 395.78 13.82 145.94-105.94 283.22-59.75 386.74 5.24 152.78 95.91 275.91 23.98 362.24-20.41 148.41-76.31 207.97-136.66 444.24 1.35z" fill="#fff" fill-opacity=".27" transform="translate(-346 94)"/><path d="m3628 7804.38 101 723.62h-2218s-223.59-722.65-217-723.62c88.29 23.01 403.62 201.5 483 0 102.11-259.19 258.12-244.15 348.16 0 26.03 70.6 80.76 119.83 199.66 117.57 112.83-2.15 158.97-72.57 208.19-117.57 116.51-106.5 247.68-69.22 357.83-16.23 176.42 84.88 178.83 60.62 265.16 16.23 148.41-76.31 235.73-138.01 472 0z" fill="#fff" fill-opacity=".28" transform="translate(-42.3682 94)"/><path d="m2121.33 7477.29 365.67-766.29 544 558z" fill="none"/><g clip-path="url(#l)"><path d="m7655.53 6756.67c397.75 0 720.68 322.92 720.68 720.68 0 397.75-322.93 720.68-720.68 720.68s-720.68-322.93-720.68-720.68c0-397.76 322.93-720.68 720.68-720.68zm0 112.34c335.75 0 608.34 272.59 608.34 608.34s-272.59 608.34-608.34 608.34-608.34-272.59-608.34-608.34 272.59-608.34 608.34-608.34z" fill="url(#d)" transform="translate(-5525.58)"/><path d="m7646.92 6911.1c312.52 0 566.25 253.72 566.25 566.25 0 312.52-253.73 566.25-566.25 566.25-312.53 0-566.26-253.73-566.26-566.25 0-312.53 253.73-566.25 566.26-566.25zm0 29.28c296.33 0 536.91 240.58 536.91 536.91s-240.58 536.91-536.91 536.91-536.91-240.58-536.91-536.91 240.58-536.91 536.91-536.91z" fill="url(#e)" transform="translate(-5525.58)"/></g><circle cx="6773.59" cy="7410.55" fill="url(#f)" r="836.558" transform="matrix(.882264 .470755 -.470755 .882264 -473.015 -2316.73)"/></g></g><path d="m6933.53 7267.54v-.09-.22-.52l.01-.72.01-.44v-.48l.01-.54.01-.58.01-.63.02-.67.01-.73.02-.77.02-.82.02-.58.02-.27.07-.89.07-.94.08-.97.08-1.03.09-1.06.09-1.1.1-1.15.11-1.19.11-1.23.12-1.27.12-1.31.13-1.35.13-1.39.15-1.43.04-.44.17-.99.26-1.46.13-.74.14-.75.13-.76.14-.77.14-.78.15-.78.14-.8.15-.8.15-.81.15-.82.16-.83.16-.84.16-.85.16-.85.16-.86.17-.87.17-.88.17-.89.18-.89.17-.91.19-.91.18-.92.18-.92.19-.94.03-.16.21-.75.26-.92.26-.92.26-.93.26-.94.27-.95.27-.95.28-.96.27-.97.28-.97.29-.98.28-.99.29-.99.07-.24.26-.74.34-.99.34-.99.34-.99.35-1 .35-1.01.2-.57.17-.44.39-1 .4-1.01.4-1.01.4-1.02.41-1.02.3-.76.11-.27.44-1.02.45-1.02.44-1.03.45-1.04.46-1.04.46-1.04.46-1.05.46-1.06.47-1.06.47-1.06.48-1.07.48-1.08.48-1.08.49-1.08.24-.54.26-.54.5-1.09.51-1.09.51-1.1.52-1.09.52-1.11.52-1.1.53-1.12.53-1.11.54-1.12.54-1.12.54-1.13.55-1.13.55-1.13.55-1.14.56-1.14.56-1.15.53-1.08.04-.06.57-1.15.58-1.15.59-1.15.59-1.16.59-1.16.6-1.16.6-1.17.6-1.16.61-1.18.61-1.17.61-1.18.62-1.18.62-1.18.63-1.18.63-1.19.63-1.19.64-1.19.64-1.2.65-1.19.65-1.2.65-1.21.66-1.2.66-1.21.66-1.2.67-1.21.67-1.22.67-1.21.68-1.21.68-1.22.69-1.22.69-1.22.7-1.22.69-1.23.71-1.22.7-1.23.71-1.23.71-1.23.72-1.23.72-1.23.27-.47.46-.76.73-1.23.74-1.23.74-1.23.37-.62.38-.62.37-.62.38-.61.37-.62.38-.62.38-.61.37-.62.38-.62.38-.62.39-.62.38-.61.38-.62.39-.62.38-.62.39-.62.39-.62.38-.62.39-.61.39-.62.39-.62.4-.62.39-.62.39-.62.4-.62.39-.62.4-.62.4-.62.39-.62.4-.62.4-.62.41-.62.4-.62.4-.62.4-.62.41-.62.4-.62.41-.62.41-.62.41-.62.41-.62.41-.61.41-.62.41-.62.42-.62.41-.62.42-.62.41-.62.42-.62.42-.62.42-.61.41-.62.42-.62.43-.62.42-.62.42-.61.43-.62.42-.62.43-.62.43-.61.43-.62.42-.62.43-.61.44-.62.43-.62.43-.61.43-.62.44-.61.43-.62.44-.61.44-.62.44-.61.44-.61.44-.62.44-.61.44-.61.37-.51.07-.11.45-.61.45-.61.44-.61.45-.61.45-.61.45-.6.45-.61.46-.61.45-.61.45-.61.46-.6.45-.61.46-.61.46-.6.46-.61.46-.6.46-.61.46-.6.46-.6.46-.61.47-.6.46-.6.47-.6.47-.61.46-.6.47-.6.47-.6.47-.6.48-.59.47-.6.47-.6.48-.6.47-.59.48-.6.47-.59.48-.6.48-.59.48-.6.48-.59.48-.59.49-.59.48-.6.48-.59.49-.59.49-.59.48-.58.49-.59.49-.59.49-.58.82-.99.83-.98.82-.97.82-.98.82-.96.82-.97.81-.96.82-.96.82-.95.81-.95.81-.95.81-.94.81-.93.81-.94.81-.93.8-.92.81-.93.8-.92.8-.91.8-.91.8-.91.02-.03.78-.87.79-.9.8-.89.79-.89.8-.89.79-.88.79-.87.79-.88.78-.87.79-.87.78-.86.78-.86.78-.85.78-.85.78-.85.77-.84.78-.84.77-.84.77-.83.76-.83.77-.82.76-.82.77-.82.76-.81.75-.81.76-.81.76-.8.75-.8.75-.79.75-.79.75-.79.74-.78.74-.78.74-.77.74-.77.74-.77.74-.76.73-.76.73-.76.73-.75.72-.75.73-.74.72-.74.72-.74.72-.73.71-.73.72-.73.71-.72.71-.72.7-.71.71-.71.7-.7.7-.71.69-.7.7-.69.69-.69.69-.69.69-.68.68-.68.69-.67.68-.68.67-.66.68-.67.67-.66.67-.65.67-.66.66-.65.67-.64.66-.64.66-.64.65-.63.65-.63.65-.63.65-.62.64-.62.64-.61.64-.61.64-.61.63-.6.63-.6.63-.59.62-.6.62-.58.62-.59.62-.58.61-.57.61-.57.61-.57.61-.57.6-.56.6-.55.59-.56.59-.55.59-.54.59-.54.58-.54.59-.53.57-.53.58-.53.57-.52.57-.52.56-.51.56-.51 1.12-1.02 1.1-.99 1.09-.98 1.07-.96.35-.31.72-.64 1.05-.93 1.04-.92 1.02-.9 1.01-.88 1-.87.98-.85.97-.84.95-.83.94-.81.93-.79.9-.77.9-.77.88-.74.87-.74.85-.71.83-.7.82-.69.81-.67.78-.65.78-.64.75-.63.74-.6.73-.6.71-.58.69-.56.67-.55.66-.53.64-.51.63-.51.6-.48.59-.47.57-.46.56-.44.54-.42.52-.41.5-.39.48-.38.47-.36.44-.35.43-.33.41-.32.39-.3.37-.29.69-.52.61-.46.53-.41.46-.34.09-.07.28-.2.29-.22.21-.15.17-.13-.16.14-.2.18-.27.24-.26.24-.09.08-.43.38-.5.45-.57.52-.65.59-.35.32-.36.34-.39.36-.4.37-.42.39-.44.4-.45.43-.47.44-.49.46-.5.47-.52.49-.54.51-.55.53-.57.54-.58.56-.6.57-.61.6-.64.61-.64.63-.66.64-.68.66-.69.68-.71.69-.72.71-.73.73-.75.75-.77.76-.78.77-.79.8-.8.81-.82.83-.84.84-.85.86-.85.88-.88.9-.89.9-.89.93-.92.95-.92.96-.94.97-.95 1-.96 1.01-.98 1.02-.66.7-.32.34-1 1.06-1.02 1.07-1.02 1.09-1.04 1.11-.52.55-.52.57-.53.56-.53.57-.53.58-.54.58-.54.58-.54.59-.54.59-.55.59-.55.6-.55.61-.56.6-.55.61-.56.62-.56.62-.57.62-.57.63-.57.63-.57.64-.57.64-.58.64-.58.65-.59.65-.58.65-.59.66-.59.67-.59.66-.6.68-.59.67-.6.68-.6.68-.61.69-.6.69-.61.7-.61.7-.62.7-.61.71-.62.71-.62.72-.62.71-.63.73-.62.73-.63.73-.63.73-.63.74-.64.74-.64.75-.64.75-.64.76-.64.76-.64.76-.65.76-.65.77-.65.78-.65.78-.66.78-.65.79-.66.79-.66.79-.66.8-.67.8-.66.81-.67.81-.67.81-.67.82-.68.82-.67.83-.68.83-.67.83-.68.84-.69.84-.68.84-.68.85-.69.85-.69.86-.69.86-.69.86-.69.87-.69.88-.7.87-.7.88-.69.88-.7.89-.71.89-.7.9-.7.9-.71.9-.71.91-.71.91-.71.91-.71.92-.71.92-.71.93-.72.93-.71.93-.72.94-.72.94-.72.95-.72.95-.72.95-.73.96-.7.93-.02.03-.73.96-.73.96-.73.97-.73.98-.73.97-.74.98-.73.99-.74.99-.73.99-.74 1-.74 1-.74 1-.74 1.01-.74 1.01-.74 1.01-.75 1.02-.74 1.02-.75 1.03-.74 1.03-.75 1.03-.75 1.04-.43.61-.44.61-.43.61-.44.61-.43.61-.44.61-.43.62-.43.61-.43.61-.43.62-.43.61-.42.62-.43.61-.43.62-.42.62-.42.61-.43.62-.42.62-.42.62-.42.61-.42.62-.41.62-.42.62-.42.62-.41.62-.42.62-.41.63-.41.62-.41.62-.41.62-.41.63-.41.62-.41.62-.41.63-.4.62-.41.63-.4.62-.4.63-.41.62-.4.63-.4.62-.4.63-.39.63-.4.62-.4.63-.39.63-.4.63-.39.62-.4.63-.06.11-.33.52-.39.63-.39.62-.4.63-.38.63-.39.63-.39.62-.39.63-.39.63-.38.63-.39.63-.38.63-.38.63-.38.63-.39.63-.38.63-.38.63-.37.63-.38.63-.38.63-.37.63-.38.63-.37.63-.37.63-.37.63-.37.63-.37.63-.37.63-.37.63-.37.63-.37.63-.36.63-.37.63-.36.63-.36.63-.36.63-.36.64-.36.62-.36.64-.36.63-.36.63-.36.63-.35.63-.35.63-.36.63-.35.63-.35.63-.35.63-.35.63-.35.63-.35.63-.35.63-.34.63-.35.63-.34.63-.35.63-.34.63-.34.62-.34.63-.34.63-.34.63-.34.63-.34.63-.34.62-.33.63-.34.63-.33.63-.33.62-.33.63-.34.63-.33.62-.32.63-.33.62-.33.63-.33.62-.32.63-.33.62-.64 1.25-.65 1.25-.64 1.24-.39.78-.25.47-.63 1.24-.64 1.23-.63 1.24-.63 1.23-.62 1.23-.63 1.24-.61 1.22-.62 1.23-.61 1.23-.6 1.22-.61 1.22-.6 1.22-.59 1.22-.59 1.21-.59 1.22-.59 1.21-.58 1.21-.58 1.21-.57 1.2-.58 1.2-.56 1.2-.57 1.2-.56 1.19-.56 1.19-.55 1.19-.55 1.19-.54 1.18-.55 1.18-.54 1.18-.53 1.17-.54 1.18-.52 1.17-.53 1.16-.52 1.16-.52 1.16-.51 1.16-.52 1.15-.5 1.15-.51 1.14-.03.07-.48 1.07-.5 1.13-.5 1.13-.5 1.13-.5 1.12-.49 1.12-.49 1.12-.48 1.11-.48 1.1-.48 1.11-.47 1.1-.47 1.09-.47 1.09-.46 1.09-.46 1.08-.46 1.08-.45 1.07-.23.54-.23.53-.45 1.06-.46 1.05-.44 1.05-.45 1.04-.44 1.04-.44 1.04-.43 1.03-.43 1.03-.43 1.02-.43 1.02-.42 1.01-.41 1-.42 1-.41 1-.1.26-.32.72-.43.97-.43.97-.42.96-.41.95-.42.95-.18.42-.25.52-.44.92-.43.92-.43.91-.43.9-.43.9-.32.69-.11.2-.46.87-.45.86-.45.86-.45.84-.44.85-.44.84-.43.83-.43.83-.42.82-.42.82-.42.81-.41.8-.34.66-.08.14-.47.76-.46.75-.46.75-.45.74-.45.74-.44.73-.44.73-.44.72-.42.71-.43.71-.42.7-.41.69-.41.69-.41.68-.4.68-.4.67-.39.66-.38.65-.38.65-.38.65-.37.63-.37.63-.36.62-.36.62-.7 1.21-.47.82-.24.34-.75 1.11-.74 1.07-.71 1.05-.69 1.02-.66 1-.65.96-.62.93-.6.9-.57.87-.55.83-.53.81-.51.77-.48.74-.46.71-.14.21-.32.45-.45.62-.42.58-.4.56-.37.51-.34.49-.32.44-.29.41-.26.38-.24.33-.39.56-.28.4-.12.18-.05.07-.06.08z" fill="#fff" fill-opacity=".31" transform="matrix(-1.15414 -.119221 .102752 -.994707 9765.602 9505.75)"/><g transform="translate(-5727.588 -6316.333)"><path d="m8271.09 6580.16c280.12 198.3 463.33 526.33 463.33 897.13 0 11.28-.17 22.52-.51 33.71h835.72c0 .23.97 192-238 192-239.12 0-92.65 153-270 153s-45.6 126-236 126-103.46 115.61-252.15 115.61-252.58.17-252.58.17c10.19-11.67 30.51-35.32 30.51-35.32 130.34-159.08 208.68-362.98 208.68-585.17 0-301.51-144.26-569.35-366.98-737.2 7.16-4.55 13.83-9.96 19.81-16.1 3.94-4.07 9.66-8.73 12.08-15.14 3.99-10.59.26-23.25-6.8-32.76-8.28-11.16-22.31-16.85-33.37-11.59-1.87.89-3.23 1.65-5.68 3.82 0 0-1.25 1.11-1.25 1.11-7.07 5.79-14.2 11.65-22.57 14.86-.72.27-1.47.46-1.47.46-1.73-3.97-1.41-8.73-.54-13.1l.12-.07c4.9-2.94 9.91-5.69 15.08-8.11 14.46-6.74 29.73-13.44 44.27-20.93 23.46-12.13 50.13-33.99 58.3-62.38zm-1118.97-78.68c2.46 8.69 4.92 17.38 7.31 26.09 8.14 29.87 16.71 60.03 19.45 91.07l-3.23 1.41s-1.12.57-1.12.57c-4.97 2.53-9.91 5.54-13.23 9.99-.46.61-.61.79-1.32 1.95-7.09-11.78-22.73-17.87-37.47-17.61-4.24.08-2.43.09-3.79.26-6.63.83-13.11 2.59-19.44 4.72-18.79 6.33-33.86 21.99-34.93 40.66-.65 11.23 3.35 21.37 9.34 30.06 11.68 16.97 28.34 28.56 47.01 34.81-234.03 166.66-386.96 441.39-386.96 751.83 0 222.19 78.34 426.09 208.69 585.17 0 0 19.43 23.65 29.62 35.31 0 0-99.63-.16-248.32-.16-148.68 0-61.75-115.61-252.15-115.61s-58.65-126-236-126-30.88-153-270-153c-238.97 0-238-191.77-238-192h832.34c-.33-11.19-.5-22.43-.5-33.71 0-425.25 240.96-794.24 592.7-975.81zm1051.93 194.88c.51-.44 1.19-1.15 1.19-1.15-.4.38-.79.76-1.19 1.15zm-1045.77-36.78c-1.24 1.44-2.2 2.34-3.35 3.25-3.37 2.66-7.47 4.29-11.68 5.14l-.22.04c6 3.77 13.57 4.84 20.38 2.75 0 0-3.3-5.46-4.93-11.43-.07.08-.14.17-.2.25zm1019.91 9.61-.7.79s1.56-1.5.7-.79zm-60.76-9.68c-.78.65-1.82 1.51-1.82 1.51l1.47.8c.08-.33.16-.67.24-1 .18-.73.85-1.94.11-1.31zm-64.37-6.36c.46-.22.93-.45 1.34-.66.35-.18.12.44-.26 1.2l-.29-.14zm-839.66-11.83c-2.15 2.3-2.01 2.47-4.6 4.25l1.88 2.04 2.03 3.46.29.86c.44-3.54.67-7.11.77-10.68l.11-.77c-.16.28-.32.56-.48.84zm933.84-22.5c-4.22 6.41-8.24 12.91-11.81 19.8 0 0 3.86-2.24 7.29-4.1 3.72-2.02 7.51-3.93 11.37-5.69l.25-.11-2.88-2.55-2.4-3.32-1.63-3.75s.08-.68-.19-.28zm-930.22 9.26c0 .03.05 1.5.05 1.56-.04.66-.11 1.32-.17 1.98 0 0 1.61-2.24 1.61-2.24l-.95-.79s-.56-1.04-.54-.51zm786.99-20.1c-3.2 3.72-6.6 7.27-10.22 10.59 0 0 3.96 1.29 3.96 1.29l1.89 1.13c1.14-4.44 2.65-8.78 4.41-13 0 0 .15-.23-.04-.01zm-651.71-185.63c-.9 1.15-1.72 2.37-2.47 3.65-2.51 4.26-4.21 12.96-4.21 12.96-18.46-5.14-39.88 2.85-44.22 19.13-1.1 4.16-.76 9.49-.76 9.49.75 6.17 1.8 13.28 2.09 15.15l.02.2.03.12.02.15c.5 3.37 1.43 6.66 2.91 9.7 2.65 5.44 7.86 9.8 7.86 9.8-1.56 2.46-2.71 5.17-3.4 8-2.61 10.63.91 22.32 2.7 33.55 2.49 15.58 6.78 30.13 5.93 44.8-.11 1.72-.21 3.43-.31 5.15-.25 4.2-1.12 8.49-1.12 8.49-2 1.38-4.18 2.49-6.39 3.52 0 0-2.03-1.38-3.33-2.43-17.13-13.89-29-32.92-40.43-51.77-16.38-27.02-31.26-55.11-43.56-84.2 41.63-17.76 84.57-32.98 128.64-45.46zm3.62 174.08c-.05.92-.13 2.22-.13 2.22l1.33.01c-.11-.29-.22-.59-.34-.88-.34-.9-.81-2.22-.81-2.22-.02.29-.03.58-.05.87zm528.73-7.65c2.28-2.43 3.89-4.46 3.89-4.46 3.03-4.12 6.16-8.2 9.07-12.34.03-.04.05-.08.08-.11-1.6 6.39-3.16 12.8-4.71 19.21-2.77-.78-5.54-1.55-8.33-2.3zm-40.78-189.23c123.51 22.8 239.76 66.66 344.94 127.74-23.39 13.14-43.04 31.92-59.96 53.1.51-4.71-.12-9.49-1.81-13.89-7.81-20.38-33.06-30.35-49.41-20.3-3.64 2.24-6.92 6.16-6.92 6.16.04-3.14-.4-6.28-1.28-9.29-6.78-23.41-34.94-36.68-51.83-24.45-7.22 5.24-11.21 14.14-15.7 22.39l-.02-.25c-1.14-12.03-6.47-23.33-13.48-33.36-9.27-13.28-24.06-21.62-39.33-20.5-2.82.21-6.2.74-6.2.74-7.23-8.71-17.48-15.28-28.66-17.1-11.07-1.8-22.28 3.37-26.63 12.88-.4.89-.56 1.19-1.13 3.02l-.22.77c-1.25 4.6-2.49 9.21-3.73 13.81 1.69-10.13-4.31-20.71-4.31-20.71s2.08-1.07 3.46-1.83l3.3-2.31c10.07-8.79 16.41-22.19 13.81-34.6-4.51-21.54-35.78-39.81-54.95-27.22-2.86 1.89-5.48 4.91-5.48 4.91l.3-1.07c1.73-6.21 3.52-12.42 5.24-18.64zm-61.99 167.68c9.32-13.9 16.28-29.48 22.58-44.94l-.27.99c-.74 2.64-1.51 5.28-2.33 7.88-3.95 12.4-6.2 25.58-5.82 38.3-4.71-.78-9.43-1.52-14.16-2.23zm-149.85-185.54c-1.55 31.77-4.75 63.69-3.93 95.6.68 26.35 5.36 55.09 17.39 79.94-38.19.06-75.84 2.49-112.8 7.15-2.44-4.59-6.09-8.6-10.28-11.45-7.18-4.87-16.2-7.87-24.68-6.28-7.31 1.37-12.83 7.41-12.83 7.41-.94-16.05.78-34.87 5.38-51.81 1.51-5.55.82-11.55-1.54-16.79-6.68-14.81-23.02-23.44-38.92-23.87-.92-.01-1.84 0-2.76.04-1.33.08-1.14-.07-1.14-.07-5.05-22.85-23.6-43.79-46.44-51.43 74.86-17.58 152.67-27.35 232.55-28.44zm-265.64 109.97c-.96 1.42-2.54 3.38-2.54 3.38s4.21 2.64 7.03 5.75c7.38 8.18 7.96 20.23 10.02 30.9 1.48 7.61 2.99 15.21 4.47 22.82l.17.86c1.52-16.21 2.16-32.5 2.26-49.15-.36-.26-.7-.52-1.05-.78-6.73-5.06-12.91-10.86-18.55-17.12 0 0-1.1 2-1.81 3.34zm-176.58-8.72c8.18 19.14 17.22 37.77 26.99 56.1.5.94 1 1.88 1.5 2.81-3.98.52-7.83 1.64-10.99 4.3-1.69 1.43-3.34 3.81-3.34 3.81-5.36-21.9-11.43-43.68-17.47-65.46 1.1-.52 2.2-1.04 3.31-1.56zm690.45 26.35c-3.41 11.55-6.45 23.11-9.7 34.79 0 0-.52 1.16.22-.24l.08-.15c3.23-11.59 6.4-23.2 9.52-34.81-.04.14-.08.27-.12.41zm-9.48 34.54s-.68 1.53.07-.11c0 0-.04.07-.07.11zm-163.27-160.56c22.18 1.23 44.19 3.13 66 5.68l-.84 3.48c-7.19 29.95-17.73 59.84-29.16 89.37-6.73 17.39-13.17 35.22-24.85 49.53-2.98 3.66-6.28 7.84-10.88 8.63-.79.14-1.41 1.07-2.53-1.18-6.12-12.23-6.73-26.98-7.01-41.04-.32-16.21-.04-32.72 1.68-48.79 2.43-21.9 5.06-43.78 7.59-65.68zm207.03 142.98c-1.14 4.19-2.28 8.39-3.43 12.58 0 0-1.41 1.62 1.11-.63 2.69-2.38 5.51-4.6 8.45-6.67 0 0-3.37-2.56-3.37-2.56l-2.64-3.16c-.04.15-.08.29-.12.44zm21.82 11.92s.07-.11.62-1.11c-.21.37-.41.74-.62 1.11zm-633.63-55.44-.07-.61c.08.64.14 1.08.34 1.91-.09-.37-.18-.78-.22-.98l-.04-.23zm31.76-10.61c.5 1.63.8.23.8.23-.37-.14-.82-.3-.8-.23zm492.52-13.05c-.86 2.97-1.73 5.94-2.6 8.9 0 0-.63.97.22.11 0 0 1.85-1.86 3.95-3.29 1.32-.89.69-1 .69-1s-1.18-2.94-1.66-5.13c-.4-1.86-.41-.26-.6.41zm35.05-12.61c-.25 1.05.63.52.14-.03 0 0-.08 0-.14.03z" fill="url(#g)"/><path d="m6559.92 7511c-.33-11.19-.5-22.43-.5-33.71 0-604.73 487.29-1095.7 1087.5-1095.7 600.2 0 1087.5 490.97 1087.5 1095.7 0 11.28-.17 22.52-.51 33.71h835.72s1.12 192-238 192-92.65 153-270 153-45.6 126-236 126-103.46 115.61-252.15 115.61-252.58.17-252.58.17c10.19-11.67 30.51-35.32 30.51-35.32 130.34-159.08 208.68-362.98 208.68-585.17 0-507.79-409.18-920.06-913.17-920.06-504 0-913.18 412.27-913.18 920.06 0 222.19 78.34 426.09 208.69 585.17 0 0 19.43 23.65 29.62 35.31 0 0-99.63-.16-248.32-.16-148.68 0-61.75-115.61-252.15-115.61s-58.65-126-236-126-30.88-153-270-153c-238.97 0-238-191.77-238-192z" fill="url(#h)"/><path d="m8065.42 6715.53c10.82 5.94 21.51 12.12 32.06 18.54 151.11 91.87 272.91 230.3 344.44 391.69 64.99 146.62 87.78 311.45 66.08 470.28-18.86 138.04-71.36 270.32-152.39 384.27-109.86 154.48-270.89 272.09-454.19 328.2-128.26 39.26-265.62 48.06-397.53 26.19-117.99-19.56-231.65-63.98-331.9-129.55-131.89-86.26-239.94-209.11-308.44-351.17-79.7-165.28-104.95-356.96-70.72-538.45 33.41-177.11 124.27-343.04 254.55-467.27 123.46-117.73 282.17-198.35 451.14-227.47 49.51-8.53 99.67-12.68 149.8-12.64 62.91.13 125.82 7.22 187.27 20.9.84.31 1.69.6 2.55.86 4.72 1.47 9.68 2.6 14.7 3.16 36.74 8.96 72.91 20.3 108.18 33.92-4.68 5.74-7.56 12.81-9.24 20.11-1.6 6.9-1.56 13.91-.2 20.7-89.95-35.64-186.19-55.26-283.31-57.71-7.57-.2-15.13-.28-22.7-.27-115.19.24-229.85 24.53-334.46 71.07-122.43 54.48-231.25 139.33-314.33 244.7-96.2 122.01-157.23 271.63-173.06 427.13-17.28 169.7 18.83 344.21 103.54 493.04 90.02 158.15 233.37 285.29 401.19 355.41 170.49 71.24 366.21 82.12 541.21 33.23 130.81-36.55 251.99-106.11 349.84-199.95 102.23-98.05 178.82-222.14 219.91-358.51 35.85-119.01 44.32-246.39 24.64-369.74-20.79-130.34-73.9-255.55-151.9-360.86-71.54-96.59-164.5-177.56-270.69-235.42 11.3-8.32 17.72-21.5 23.96-34.39z" fill="url(#i)"/><path d="m7594.93 6527.86h340.458v264.533h-340.458z" fill="none"/><g clip-path="url(#m)"><circle cx="7693.78" cy="7414.91" fill="none" r="833.252" stroke="url(#i)" stroke-width="40.93" transform="matrix(1.01807 0 0 1.01807 -185.909 -71.616)"/></g><path d="m7813.27 6518.23 78.29.38 27.92.25 15.89.3.01 8.7.07 4.64 3.53 259.89-.01.63-.12.63-.24.61-.34.56-.43.5-.53.41-.59.33-.25.09-.4.13-.69.1-235.33 2.98-105.12 1.2-1.43-.09-1.39-.33-1.32-.58-1.21-.8-1.05-1-.87-1.17-.66-1.31-.41-1.42-.17-1.47-.58-51.99-.39-65.75-.28-89.02-.07-57.77.14-1.71.44-1.66.72-1.55.98-1.41 1.21-1.22 1.41-.99 1.55-.72 1.66-.45 1.72-.16 67.61-.09zm106.21 18.62-27.92.26-78.29.38-150.73.32-57.8-.07-.06 47.89-.28 89.02-.39 65.75-.49 43.92 96.53 1.11 231.79 2.93 3.42-251.8z" fill="none"/><path d="m6954.53 6475.48 181.25 332.47 994.23 18.86 281.31-301.3 415.75 173.19 142.66 1156.2-353.35 390.12-121.15-147.24h-200.31-1607.27l-437.08-858.1 615.28-858.09z" fill="none"/><g clip-path="url(#n)"><circle cx="7994.64" cy="6965.45" fill="none" r="772.31" stroke="#fff" stroke-dasharray="0 120.46 0 0" stroke-dashoffset="46.17" stroke-width="32.12" transform="matrix(1.29716 0 0 1.29716 -2721.72 -1558.01)"/></g><path d="m8559.44 7512.41c.1-2.68 0 0 0 0l174.47-1.41h835.72s1.12 192-238 192-92.65 153-270 153-45.6 126-236 126-103.46 115.61-252.15 115.61-252.58.17-252.58.17c10.19-11.67 30.51-35.32 30.51-35.32 123.44-150.66 200.24-341.52 208.03-550.05z" fill="url(#j)"/><path d="m6734.34 7511 .12 2.96s-.48-12.16 0 0c8.1 207.92 84.83 398.21 207.97 548.5 0 0 19.43 23.65 29.62 35.31 0 0-99.63-.16-248.32-.16-148.68 0-61.75-115.61-252.15-115.61s-58.65-126-236-126-30.88-153-270-153c-238.97 0-238-191.77-238-192z" fill="url(#j)"/><path d="m7877.28 6608.86c-2.23 1.58-4.54 2.83-6.93 3.74-3.28 1.25-6.83 1.85-10.67 1.79-3.83-.06-8.18-.69-13.04-1.89-13.78-3.38-23.33-11.82-28.65-25.31-5.31-13.5-4.94-29.63 1.11-48.41 1.34-4.08 2.69-8.67 4.05-13.77 1.35-5.1 2.79-10.1 4.32-15.01 1.53-4.92 2.99-9.55 4.39-13.9 1.41-4.36 2.65-8.02 3.74-10.98 1.42-3.76 3.87-5.81 7.36-6.12 3.49-.32 6.94.53 10.33 2.53 3.4 2.01 6.26 4.7 8.57 8.06 2.31 3.35 2.86 6.79 1.65 10.31-1.59 5.19-3.35 11.29-5.28 18.31-1.92 7.02-3.65 13.28-5.16 18.78-1.52 5.5-3.04 10.71-4.57 15.62s-2.62 9.49-3.29 13.73c-.66 4.24-.95 7.91-.86 11.02s.95 5.45 2.6 7.03c1.71 1.89 3.76 2.76 6.15 2.61 2.38-.15 4.8-.95 7.27-2.4 2.46-1.45 4.85-3.22 7.16-5.29 2.32-2.07 4.37-4.22 6.15-6.42 3.28-4.48 5.89-8.03 7.83-10.63 1.94-2.61 4.04-6.13 6.32-10.57.16-.4.35-.76.56-1.08.54-1.93 1.09-3.88 1.63-5.85 2.71-9.76 5.33-19.32 7.85-28.7 2.52-9.37 4.67-17.37 6.46-23.98.64-2.49 2.62-3.54 5.93-3.16s6.68 1.61 10.11 3.69c3.44 2.08 6.39 4.75 8.87 8.01 2.47 3.26 3.33 6.56 2.57 9.91l-1.55 4.89 1.38-.88c6.27-5.08 11.86-7.98 16.76-8.71s9.31-.12 13.22 1.82c3.91 1.95 7.35 4.93 10.32 8.96 2.96 4.03 5.53 8.37 7.71 13.03 3.3 7.16 4.39 14.23 3.28 21.22-1.11 7-3.19 14.64-6.25 22.93-1.88 5.98-3.96 11.52-6.22 16.61-2.26 5.1-4.49 10.43-6.69 16-1.07 2.95-1.46 5-1.17 6.15.29 1.16 1.01 1.78 2.15 1.87s2.42-.15 3.84-.72 2.69-1.26 3.83-2.07c5.01-3.4 9.85-7.62 14.5-12.65s9.78-11.66 12.98-15.89c2.28-3.02 4.56-6.33 6.22-9.5 2.44-4.67 4.81-9.28 7.13-13.84 2.31-4.57 4.58-8.84 6.79-12.82 2.21-3.99 4.14-7.32 5.78-10 2.11-3.4 4.9-4.91 8.39-4.51 3.48.4 6.76 1.96 9.83 4.68s5.35 5.94 6.84 9.64c1.5 3.7 1.44 7.21-.18 10.54-2.55 4.76-5.45 10.38-8.69 16.87s-6.13 12.27-8.68 17.35c-2.54 5.09-5.04 9.88-7.48 14.39-2.44 4.5-4.4 8.76-5.86 12.79-1.47 4.02-2.46 7.56-2.97 10.62-.51 3.07-.11 5.54 1.19 7.42 1.31 1.88 3.77 3.05 7.38 3.51s7.5.11 11.67-1.05c4.17-1.17 8.19-2.95 12.07-5.35s6.74-5.53 8.59-9.37 3.91-8.45 6.2-13.81 4.64-10.78 7.04-16.24c2.41-5.47 4.77-10.72 7.06-15.76 2.3-5.05 4.26-9.23 5.88-12.55 1.61-3.33 4.16-5.03 7.62-5.11 3.47-.08 6.79.87 9.95 2.85 3.17 1.98 5.62 4.72 7.36 8.22 1.73 3.51 1.67 7.02-.19 10.54-1.83 4.16-4.25 9.23-7.26 15.19-3.01 5.97-6.02 12.01-9.02 18.14-3 6.12-5.77 11.97-8.3 17.53-2.53 5.57-4.48 9.75-5.87 12.55l-9.34 19.64c8.07-3.09 21.15-9.6 28.99-14.9 7.63-5.16 14.99-12.4 18.78-16.74 1.35-2.92 2.77-5.66 4.26-8.21 8.31-14.9 17.44-28.13 27.39-39.7 9.94-11.57 20.01-21.36 30.2-29.35 10.19-8 20.19-14.16 29.99-18.49 9.8-4.34 18.68-6.39 26.62-6.17 5.99-.07 10.34 1.23 13.04 3.9 2.71 2.67 4.67 7.66 5.89 14.96 1.08 6.19 1.11 12.44.06 18.73-1.04 6.3-3.38 12.57-7.04 18.82-3.65 6.24-8.79 12.43-15.42 18.55-6.63 6.13-14.97 11.95-25.02 17.48-6.86 3.58-14.16 7.21-21.9 10.88s-15.02 6.94-21.79 9.93c-13.49 5.95-25.92 14.32-25.92 14.32s-2.04 5.62-2.83 11.91-.41 12.09 1.14 17.4 4.36 9.42 8.41 12.31 9.55 3.27 16.51 1.11c5.69-1.97 11.3-4.94 16.82-8.91 5.53-3.96 10.21-7.55 14.04-10.78 1.7-1.93 3.78-2.15 6.24-.67s4.6 3.6 6.42 6.36c1.83 2.76 3.07 5.73 3.73 8.91.66 3.17.02 5.64-1.91 7.42-1.37 1.13-3.17 2.9-5.42 5.31s-4.88 4.83-7.87 7.25c-3 2.42-6.31 4.81-9.92 7.16s-7.25 4.34-10.91 5.97c-7.09 3.43-13.87 4.58-20.36 3.47-6.48-1.12-12.32-3.59-17.52-7.43-5.2-3.83-9.73-8.59-13.62-14.27-3.88-5.68-6.76-11.37-8.65-17.07-1.95-5.71-3.13-11.39-3.54-17.05-3.06 2.69-6.25 5.1-9.57 7.21-5.59 3.01-12.27 5.1-20.04 6.28-7.76 1.19-15.6 1.94-23.52 2.26l-11.78 24.14c-5.77 12.05-13.2 18.98-22.31 20.78-9.1 1.8-17.69.62-25.77-3.54s-14.68-10.37-19.81-18.64c-5.12-8.26-6.72-16.66-4.79-25.18 1.72-7.37 4.57-12.46 8.56-15.28 3.99-2.83 8.82-4.54 14.5-5.14s12.12-.52 19.34.23c7.21.76 15.02.94 23.43.54l2.08-4.2c-2.93 1.12-6.38 1.6-10.35 1.44s-9.11-1.74-15.41-4.74c-11.82-5.63-19.31-14.72-22.48-27.27-5.76 4.83-11.18 7.69-16.24 8.57-5.25.91-10.06.54-14.44-1.11-4.37-1.65-8.21-4.4-11.52-8.25-3.32-3.84-6.06-8.09-8.24-12.76-3.56-7.24-4.92-14.4-4.07-21.49s2.78-14.93 5.78-23.54c.69-2.17 1.57-4.73 2.64-7.67 1.08-2.95 2.21-5.95 3.39-9.01 1.18-3.05 2.26-6 3.22-8.83.97-2.83 1.95-5.13 2.94-6.89 1.08-2.95 1.4-5.02.98-6.22-.43-1.2-1.34-1.89-2.74-2.07-1.41-.18-2.95-.03-4.63.45-1.69.47-3.23 1.07-4.62 1.8-3.71 2.04-7.5 4.43-11.36 7.18-3.85 2.74-7.31 5.7-10.35 8.87-1.53 6.7-3.12 13.38-4.79 20.04-1.66 6.66-3.19 12.91-4.59 18.75-1.41 5.84-2.62 10.84-3.64 15.01s-1.79 7.07-2.31 8.7c-1.2 3.8-3.68 5.66-7.45 5.57s-7.53-1.45-11.3-4.1c-3.77-2.64-6.86-6.26-9.28-10.86-.04-.07-.08-.15-.12-.23zm146.33 85.68c-8.66.28-15.95.82-21.87 1.62-5.92.81-9.19 2.95-9.81 6.43-.41 2.32.28 4.46 2.09 6.42 1.8 1.97 4.08 3.21 6.82 3.73 2.75.52 5.83.01 9.24-1.51 3.42-1.52 6.52-4.76 9.32-9.73zm-666.67-77.24c-.26 1.3-.53 2.54-.83 3.71-.96 3.83-2.39 7.25-4.3 10.25-1.92 3.01-4.43 5.65-7.56 7.94-3.12 2.29-7.11 4.5-11.97 6.61-10.74 4.68-21.87 5.03-33.39 1.05-11.51-3.98-22.73-11.04-33.66-21.17-1.06 1.08-2.23 1.9-3.5 2.45-5.65 2.77-10.84 5.27-15.58 7.48-4.74 2.23-9.29 4.28-13.64 6.18-.52 18.52-4.23 32.71-11.14 42.54s-16.1 16.94-27.57 21.31c-7.92 3.14-16.39 5.2-25.44 6.19-9.04.99-17.89.81-26.55-.53-8.67-1.35-16.84-3.76-24.51-7.24-7.67-3.49-14.22-8.08-19.65-13.78-9.21-9.64-14.06-17.93-14.55-24.85s1.32-12.67 5.45-17.26c4.12-4.58 9.49-8.01 16.1-10.27 6.62-2.26 12.31-3.65 17.08-4.18 4.76-.21 9.03.41 12.82 1.86 3.79 1.46 6.57 3.19 8.33 5.22s2.27 3.97 1.55 5.84c-.73 1.87-3.22 2.95-7.48 3.26-7.03.57-11.93 2.32-14.71 5.24s-3.96 6.22-3.54 9.92c.42 3.69 2.27 7.46 5.56 11.3 3.28 3.85 7.47 7.06 12.57 9.65s10.89 4.1 17.35 4.54c6.47.45 13.28-.89 20.44-4.01 11-4.79 18-14.04 21.01-27.76-5.1 1.91-12.14 4-15.32 2.75-3.18-1.26-5.93-14.75-4.88-18s4.69-4.68 8.29-6.56c1.53-.66 3.58-1.55 6.14-2.67 2.56-1.11 5.38-2.5 8.47-4.15-.41-15.34-2.71-32.48-6.91-51.44-4.2-18.95-9-38.27-14.41-57.94s-10.71-39-15.91-57.99c-5.19-18.98-9.11-36.28-11.75-51.88-.54-3.8.69-6.82 3.68-9.05 3-2.24 6.62-3.42 10.87-3.57 4.26-.15 8.38.85 12.39 2.98 4 2.14 6.63 5.42 7.88 9.83 3.93 14.73 9.24 30.57 15.92 47.51 6.68 16.95 14.13 33.72 22.32 50.31 8.2 16.59 16.7 32.36 25.49 47.3s17.38 27.8 25.77 38.57c8.4 10.77 16.25 18.98 23.55 24.64 7.3 5.67 13.38 7.44 18.24 5.32 1.79-.78 9.76-4.17 14.56-8.14 2.27-1.87 4.43-5.12 5.34-7.99.9-2.88 1.5-7.22 1.66-10.08.31-5.72.74-11.68.8-14.96.04-2.8-.58-8.92-1.22-13.73-.5-2.95-1.09-6.09-1.78-9.41-1.06-5.17-2-10.3-2.83-15.39-.82-5.09-1.58-9.9-2.27-14.43-.68-4.53-1.2-8.37-1.55-11.52-.42-4.01.86-6.98 3.82-8.9 2.97-1.93 6.41-2.79 10.32-2.6 3.92.18 7.65 1.23 11.2 3.13s5.56 4.7 6.05 8.4c.89 5.36 2.04 11.62 3.45 18.76 1.4 7.15 2.65 13.53 3.75 19.13 1.1 5.61 2.06 10.95 2.88 16.04.83 5.09 1.89 9.67 3.18 13.76 1.29 4.08 2.67 7.49 4.13 10.21s3.27 4.39 5.43 5.03c2.37.87 4.58.68 6.63-.57 2.06-1.26 3.86-3.11 5.4-5.55 1.55-2.45 2.89-5.14 4.03-8.08 1.14-2.93 2.01-5.8 2.61-8.6.93-5.53 1.86-9.88 2.23-13.14 1.32-11.58 3-32.52 3.11-42.5.12-9.97.18-19.15.19-27.52-6-3.43-11.82-7.82-17.48-13.18-5.65-5.36-10.52-10.91-14.62-16.64-4.09-5.74-7.07-11.28-8.92-16.63-1.86-5.35-1.81-9.91.16-13.67 2.99-5.36 7.18-8.51 12.59-9.47s11.03-.28 16.85 2.02c5.83 2.29 11.39 5.86 16.68 10.7 5.3 4.83 9.37 10.21 12.23 16.13 1.79 3.48 3.11 7.62 3.97 12.39.86 4.78 1.57 10.02 2.15 15.7 3.83.29 7.54-.26 11.13-1.67 3.86-1.44 7.7-1.81 11.53-1.08 3.84.72 7.3 2 10.38 3.85 3.09 1.84 5.49 4.01 7.2 6.5 1.71 2.48 2.28 4.63 1.71 6.45-.38 1.21-.96 3.9-1.74 8.06s-1.55 9.11-2.3 14.85c-.76 5.74-1.36 11.82-1.8 18.24s-.44 12.48 0 18.19c.43 5.71 1.29 10.71 2.56 14.99 1.28 4.28 3.33 6.93 6.15 7.95 4.83 2.16 9.27 1.79 13.32-1.13 4.06-2.92 7.63-7 10.71-12.22 3.08-5.23 22.54 4.79 17.38 12.06s-8.54 12.58-16.36 16.64-20.26 9.17-31.38 6.22c-9.49-2.33-12.89-4.53-18.75-11.74-5.86-7.2-9.93-15.32-12.2-24.36s-3.08-18.38-2.41-28c.66-9.63 2.77-18.03 6.33-25.2.94-2.17 1.25-3.59.94-4.26-.31-.68-4.07-1.63-11.28-2.85.14 11.24-.05 21.66-.58 31.26-.5 9.26-.57 20.63-.59 21.61-.05 3.84-.28 8.75-.66 14.73-.39 5.98-1.58 13.04-3.58 21.2-1.34 5.04-2.78 9.37-4.32 13-1.54 3.62-5.34 8.37-9.65 10.5-7.5 3.7-15.67 5.84-23.85 7.45-13.92 2.76-19.47 2.97-30.2-6.53-.32-.28-.63-.57-.94-.86zm-137.55-56.81c2.91 10.52 5.31 20.34 7.18 29.45s3.33 17.63 4.4 25.54c3.34-1.77 6.54-3.32 9.61-4.65 3.07-1.34 5.63-2.45 7.68-3.35-11.2-14.36-20.82-30.02-28.87-46.99zm1012.2-.68c-10.84 3.63-20.33 8.52-28.46 14.66-8.12 6.14-14.98 12.11-20.58 17.9-6.7 6.76-12.43 13.83-17.2 21.2 12.92-6.67 24.34-13.33 34.26-19.97 4.26-2.6 8.36-5.47 12.31-8.62s7.44-6.17 10.49-9.07 5.41-5.75 7.08-8.55c1.66-2.81 2.37-5.32 2.1-7.55zm-396.83-218.44c.01 8.96-.6 16.29-3.45 30.9-2.5 12.79-21.65 79.78-26.2 94.81-4.56 15.04-18.88 50.99-24.8 64.22s-12.62 24.46-20.08 33.7c-7.47 9.23-15.69 16.11-24.67 20.62-8.99 4.52-18.79 5.66-29.42 3.41-12.28-2.5-22.71-9.18-31.29-20.06s-15.23-24.28-19.95-40.19-7.24-29.83-7.98-49.6 1.22-51.48 2.54-72.28c1.3-20.5 1.69-28.22 2.05-46.5.65-32.66 1.53-30.28.76-40-.57-7.15 43.58-4.77 42.5 6.38-2.71 27.9-4.55 38.89-7.39 64.68-2.25 20.39-4.53 41.64-6.03 54.84s-1.89 34.1-1.91 46.23c-.01 12.14.77 22.88 2.34 32.23 1.56 9.34 3.89 17 6.99 22.98 3.09 5.97 7.16 9.5 12.2 10.58 10.26 1.89 19.53-1.49 27.83-10.16s15.74-20.44 22.31-35.3c6.57-14.87 16.79-42.13 25.64-66.58 13.14-36.28 26.42-104.22 26.74-114.57.12-2.87 1.77-4.64 4.95-5.3 3.18-.65 6.7-.46 10.55.57 3.86 1.04 7.43 2.83 10.72 5.37 3.3 2.53 4.98 5.54 5.05 9.02zm-481.93 126.96c.27 2.28.15 4.67-.39 7.15-.53 2.49-1.06 4.39-1.6 5.7-1.88 2.83-4.41 5.08-7.57 6.76-3.17 1.68-6.24 2.6-9.21 2.76s-5.74-.61-8.31-2.31c-2.57-1.71-4.06-4.57-4.48-8.58-.41-1.66-.77-3.85-1.08-6.57-.31-2.71-.61-5.21-.88-7.49-.28-3.46 1.21-5.97 4.48-7.53s6.93-2.26 10.98-2.11c4.05.16 7.9 1.25 11.55 3.27s5.82 5 6.51 8.95zm39.1-22c-2.19.33-3.33 1.44-3.4 3.33-.06 1.89.64 4.23 2.12 7.04 1.47 2.81 3.57 5.74 6.27 8.8 2.71 3.06 5.88 5.9 9.51 8.53-.51-3.38-1.16-6.75-1.94-10.1-.79-3.34-1.8-6.37-3.05-9.07s-2.74-4.85-4.45-6.47c-1.72-1.62-3.41-2.31-5.06-2.06zm488.17 5.22c-.77 2.16-1.94 4.23-3.52 6.19s-2.9 3.4-3.96 4.31c-2.93 1.63-6.18 2.45-9.74 2.45-3.57.01-6.7-.61-9.42-1.87-2.71-1.25-5.17-3.02-6.7-5.75-1.53-2.72-1.24-6.18.17-9.95.38-1.67 1.03-3.79 1.96-6.35s1.78-4.92 2.55-7.08c1.28-3.21 3.73-4.74 7.33-4.59s7.17 1.25 10.7 3.29 6.47 4.82 8.82 8.33c2.35 3.52 2.95 7.19 1.81 11.02z" fill="#f88861" fill-rule="nonzero"/></g></svg>