<svg clip-rule="evenodd" fill-rule="evenodd" stroke-linejoin="round" stroke-miterlimit="2" viewBox="0 0 333 266" xmlns="http://www.w3.org/2000/svg"><path d="m130.804 138.416s81.814-81.814 119.643-119.643c10.368-10.368 27.178-10.368 37.546 0 .131.131.262.262.393.393 10.368 10.368 10.368 27.178 0 37.546-33.891 33.892-104.914 104.915-138.805 138.805-10.368 10.368-27.177 10.368-37.545.001-19.564-19.562-50.043-50.038-69.607-69.6-4.979-4.979-7.777-11.732-7.777-18.773 0-7.042 2.797-13.795 7.776-18.774.131-.131.262-.262.393-.393 10.368-10.368 27.177-10.368 37.546 0 20.495 20.496 50.437 50.438 50.437 50.438z" fill="#fff" transform="translate(1.09333 25.8552)"/></svg>