<?xml version="1.0" standalone="no"?>
<!DOCTYPE svg PUBLIC "-//W3C//DTD SVG 20010904//EN"
 "http://www.w3.org/TR/2001/REC-SVG-20010904/DTD/svg10.dtd">
<svg version="1.0" xmlns="http://www.w3.org/2000/svg"
 width="3843.000000pt" height="3843.000000pt" viewBox="0 0 3843.000000 3843.000000"
 preserveAspectRatio="xMidYMid meet">
<metadata>
Created by potrace 1.11, written by Peter Selinger 2001-2013
</metadata>
<g transform="translate(0.000000,3843.000000) scale(0.100000,-0.100000)"
fill="#000000" stroke="none">
<path d="M19283 29360 l-33 -11 -1 -77 c0 -42 -2 -113 -4 -157 -2 -44 -6 -172
-10 -285 -3 -113 -8 -232 -10 -265 -5 -76 -13 -198 -22 -345 -9 -157 -9 -549
0 -635 5 -38 15 -104 24 -145 8 -41 17 -86 20 -100 13 -73 91 -277 138 -360
128 -227 271 -332 472 -345 242 -16 475 177 647 537 25 54 46 100 46 103 0 4
11 30 24 58 13 29 36 84 50 122 15 39 31 79 36 90 49 114 127 354 214 660 121
429 144 517 166 630 6 28 13 61 15 75 14 65 17 221 5 249 -24 59 -131 114
-219 112 -64 -1 -76 -17 -90 -119 -6 -48 -18 -118 -26 -157 -8 -38 -16 -81
-18 -95 -9 -47 -48 -225 -74 -330 -13 -58 -26 -112 -28 -121 -28 -140 -248
-764 -360 -1018 -140 -322 -293 -484 -453 -483 -32 0 -70 5 -85 11 -82 32
-137 153 -173 381 -23 141 -17 582 11 800 2 19 7 60 10 90 3 30 8 71 10 90 2
19 7 60 10 90 3 30 8 71 10 90 2 19 7 60 10 90 3 30 7 66 10 80 2 14 7 57 10
95 3 39 8 77 10 85 2 8 6 42 10 75 5 53 8 79 20 175 2 14 7 63 10 110 l7 85
-33 20 c-19 11 -52 26 -74 33 -53 16 -242 24 -282 12z"/>
<path d="M18846 28713 c-1 -1 -69 -4 -151 -8 -83 -3 -177 -8 -210 -10 -141
-10 -222 -17 -255 -20 -19 -2 -69 -6 -110 -10 -41 -3 -86 -8 -100 -10 -14 -2
-50 -7 -80 -10 -94 -10 -143 -16 -240 -30 -14 -2 -45 -7 -70 -10 -77 -10 -253
-39 -310 -50 -14 -3 -38 -8 -55 -10 -38 -7 -184 -34 -210 -39 -41 -9 -212 -45
-262 -56 -29 -6 -53 -15 -53 -18 0 -4 28 -20 62 -37 130 -63 251 -182 315
-310 39 -77 50 -104 57 -137 5 -23 12 -28 39 -28 159 -2 334 -106 393 -234 27
-60 33 -144 14 -206 -21 -69 -41 -217 -47 -350 l-6 -134 29 19 c63 42 99 55
151 55 100 0 210 -55 272 -136 30 -40 38 -44 65 -40 17 3 63 8 101 12 39 3 77
7 85 9 9 2 58 6 110 10 52 4 111 8 130 10 119 11 374 23 547 24 l122 1 -24 54
c-37 83 -72 199 -99 321 -39 179 -50 290 -49 540 0 177 8 401 18 505 2 25 7
103 10 173 3 71 6 132 6 135 4 25 -8 28 -97 27 -53 0 -96 -1 -98 -2z"/>
<path d="M19796 28668 c-3 -18 -10 -78 -16 -133 -7 -55 -14 -113 -16 -130 -2
-16 -6 -56 -9 -88 -4 -32 -8 -66 -10 -75 -1 -9 -6 -53 -10 -97 -4 -44 -9 -89
-11 -100 -22 -119 -22 -628 0 -730 22 -105 45 -167 66 -180 5 -3 22 1 37 9 74
38 186 207 268 406 70 172 255 683 270 748 2 9 17 62 33 117 31 105 57 204 57
219 0 10 -11 12 -105 21 -36 4 -76 8 -90 10 -14 2 -61 7 -105 10 -44 4 -100 8
-125 10 -25 2 -86 7 -137 10 l-92 6 -5 -33z"/>
<path d="M14283 28531 c-76 -35 -78 -56 -33 -275 6 -28 12 -60 14 -71 8 -38
56 -225 102 -392 26 -93 57 -206 69 -253 13 -47 46 -168 74 -270 27 -102 60
-225 71 -275 23 -97 28 -116 34 -142 9 -36 45 -209 51 -243 6 -39 16 -94 21
-125 4 -22 13 -115 19 -197 l3 -56 -36 -18 c-207 -96 -208 -96 -186 -204 20
-96 51 -112 152 -79 18 6 35 9 38 6 9 -9 -47 -134 -77 -170 -43 -52 -104 -92
-179 -116 -154 -51 -324 -11 -435 103 -63 65 -83 119 -66 175 18 62 63 89 174
105 86 13 102 52 42 105 -65 57 -161 69 -286 37 -224 -58 -318 -167 -287 -332
19 -101 174 -270 313 -339 123 -62 230 -86 390 -90 317 -8 554 94 681 292 60
93 92 217 103 394 1 8 20 24 44 34 23 10 97 45 164 77 l123 59 67 -54 c68 -54
171 -118 208 -130 11 -3 45 -15 75 -26 114 -42 270 -21 392 53 89 53 137 113
158 198 l12 47 46 -34 c77 -60 138 -66 298 -31 153 33 239 74 279 134 43 66
77 181 100 337 5 42 13 252 20 535 2 91 4 169 4 173 2 14 111 -6 111 -20 0 -3
-13 -44 -29 -92 -46 -133 -56 -250 -35 -396 14 -96 35 -161 76 -235 86 -157
185 -220 334 -215 88 2 207 46 281 102 39 30 113 126 118 155 6 31 -61 92
-115 106 -42 10 -44 10 -69 -21 -58 -71 -119 -124 -149 -130 -87 -17 -134 22
-158 130 -22 100 -22 345 0 458 2 11 7 47 12 80 4 33 8 62 9 65 1 7 14 69 20
99 14 71 -103 162 -216 167 -31 1 -74 -4 -95 -11 -22 -8 -53 -14 -71 -15 -36
0 -38 5 -48 90 -22 194 -120 340 -295 437 -31 17 -49 24 -110 40 -8 2 -34 4
-57 3 -123 -1 -206 -93 -182 -200 30 -134 196 -345 359 -458 l55 -38 -1 -200
c-1 -477 -45 -729 -145 -834 -28 -29 -36 -32 -72 -27 -48 7 -68 28 -98 107
-20 51 -51 184 -65 275 -3 22 -7 42 -9 45 -2 3 -6 26 -10 50 -4 25 -15 88 -25
140 -10 52 -24 124 -30 160 -16 88 -34 118 -83 140 -68 30 -110 34 -165 16
-55 -19 -82 -55 -76 -104 10 -81 40 -270 59 -372 4 -19 8 -44 10 -55 1 -11 7
-40 13 -64 12 -49 10 -310 -3 -378 -10 -56 -59 -112 -132 -150 -95 -50 -123
-55 -181 -28 -62 29 -78 41 -177 140 -148 148 -321 400 -505 735 -115 211
-299 604 -365 780 -10 25 -23 59 -30 75 -16 38 -99 291 -121 368 -9 32 -29 73
-45 92 -54 61 -166 82 -246 46z m2421 -495 c17 -19 37 -54 45 -78 24 -78 39
-148 31 -153 -14 -8 -118 106 -146 160 -20 37 -25 59 -20 78 10 40 50 36 90
-7z m-1745 -1188 c27 -59 137 -239 194 -317 36 -49 44 -68 36 -78 -6 -7 -16
-13 -21 -13 -5 0 -37 -14 -70 -30 -34 -17 -62 -29 -63 -28 -1 2 -9 46 -18 98
-22 128 -24 141 -48 245 -26 112 -27 115 -35 143 -11 37 4 25 25 -20z"/>
<path d="M21151 28503 c-28 -107 -33 -125 -38 -139 -3 -8 18 1 46 20 128 86
317 46 455 -97 142 -147 134 -340 -21 -493 -30 -30 -61 -54 -69 -54 -18 0 -17
-3 6 -70 11 -30 19 -73 20 -94 0 -44 6 -45 14 -3 17 94 39 143 84 187 72 69
149 85 265 55 63 -16 140 -61 202 -118 38 -35 43 -37 100 -34 233 13 440 -175
514 -466 l18 -69 23 44 c83 159 159 219 280 219 46 -1 52 -2 104 -16 126 -35
259 -190 273 -320 5 -42 7 -44 22 -27 78 87 224 105 355 43 112 -54 202 -177
207 -285 2 -25 5 -46 8 -46 4 0 15 12 26 27 76 105 290 309 410 392 83 57 86
59 125 82 l34 21 -34 18 c-19 9 -66 35 -105 57 -360 209 -927 477 -1360 645
-304 118 -797 283 -995 333 -8 2 -67 18 -130 35 -63 18 -123 33 -133 35 -10 2
-27 7 -37 10 -10 3 -27 7 -37 9 -10 2 -65 16 -123 29 -58 14 -120 28 -137 32
-18 3 -61 12 -95 20 -35 8 -78 17 -97 20 -19 3 -37 7 -40 9 -3 2 -31 7 -61 11
-30 4 -58 9 -62 11 -4 3 -11 -12 -17 -33z"/>
<path d="M16155 28285 c-22 -7 -121 -39 -220 -70 -161 -51 -569 -192 -620
-215 -11 -5 -81 -34 -155 -64 -74 -30 -149 -61 -167 -68 l-31 -14 30 -69 c42
-99 189 -397 236 -480 21 -38 50 -90 64 -115 142 -255 309 -500 413 -605 112
-113 142 -127 179 -86 41 46 38 236 -9 471 -3 14 -12 63 -20 110 -18 104 -23
132 -30 168 -15 76 -5 181 21 233 12 23 11 29 -2 40 -50 41 -85 121 -99 223
-17 127 -17 167 -1 220 38 120 174 198 334 192 43 -1 83 -6 89 -9 8 -5 16 7
23 35 5 24 19 60 30 81 l21 37 -23 -1 c-13 0 -41 -7 -63 -14z"/>
<path d="M21294 28242 c-33 -5 -51 -31 -79 -110 -49 -139 -40 -183 42 -222 78
-37 169 -24 219 32 57 61 67 120 31 182 -38 66 -151 129 -213 118z"/>
<path d="M16040 27972 c-76 -10 -119 -39 -121 -83 -4 -72 22 -196 48 -226 65
-74 239 -21 274 84 17 52 13 122 -8 151 -33 45 -132 82 -193 74z"/>
<path d="M20991 27932 c-1 -13 -6 -32 -12 -43 -16 -31 -7 -39 18 -15 20 19 20
24 8 51 -12 27 -13 28 -14 7z"/>
<path d="M21155 27742 c-36 -4 -51 -16 -70 -52 -15 -30 -92 -270 -135 -425
-16 -55 -35 -122 -44 -150 -66 -208 -44 -417 58 -558 79 -109 196 -161 361
-161 63 0 89 4 125 22 45 23 45 23 58 3 71 -105 206 -161 252 -104 16 20 49
145 146 548 28 119 32 124 124 192 86 63 143 93 184 95 66 5 67 -11 6 -174
-112 -300 -143 -411 -143 -519 1 -54 28 -137 68 -204 76 -126 153 -178 265
-177 73 0 104 10 168 53 24 16 45 29 47 27 1 -2 12 -29 24 -60 41 -103 134
-186 256 -229 69 -24 125 -31 165 -19 23 7 30 5 30 -5 0 -25 -33 -32 -130 -28
-258 12 -332 9 -397 -15 -35 -14 -69 -35 -80 -49 -10 -14 -23 -31 -30 -38 -23
-24 -45 -137 -39 -198 19 -183 215 -366 402 -375 176 -9 246 47 367 291 42 86
80 157 85 158 4 0 16 2 27 4 11 2 50 6 86 10 166 14 272 44 349 99 60 43 70
44 70 9 0 -96 88 -284 177 -378 129 -137 295 -177 448 -106 71 33 162 86 180
105 6 7 24 22 40 35 17 12 56 48 89 79 58 56 58 56 53 103 -3 27 -13 61 -21
78 -21 40 -77 91 -99 91 -10 0 -64 -34 -118 -75 -142 -107 -228 -147 -316
-147 -131 0 -207 166 -167 361 11 54 20 71 46 93 34 28 221 124 388 199 118
53 355 174 370 189 3 3 30 22 60 42 170 114 305 305 327 462 22 159 -19 316
-92 350 -45 22 -153 22 -232 2 -352 -91 -781 -490 -1027 -956 -34 -64 -124
-154 -216 -215 -86 -57 -280 -154 -280 -140 0 2 22 50 49 107 27 57 66 139 86
183 21 44 89 186 153 315 125 256 132 281 93 343 -43 70 -162 114 -208 76 -20
-17 -89 -162 -209 -438 -99 -230 -117 -255 -223 -305 -56 -26 -77 -31 -144
-31 -74 0 -80 2 -104 29 -47 55 -20 135 179 525 110 215 151 304 150 328 -4
110 -152 228 -226 179 -26 -16 -78 -103 -181 -301 -78 -149 -86 -162 -174
-270 -84 -103 -115 -133 -192 -190 -78 -58 -115 -59 -113 -5 1 19 9 52 18 72
9 21 16 40 16 43 -1 3 6 18 13 33 34 64 71 160 107 279 65 208 62 288 -15 428
-99 178 -223 233 -365 161 -30 -15 -65 -37 -78 -49 l-24 -22 7 30 c4 17 8 35
10 41 6 22 -33 90 -73 126 -44 39 -91 64 -141 71 -56 9 -48 29 -177 -448 -48
-177 -50 -182 -121 -288 -101 -151 -187 -227 -272 -242 -26 -4 -37 0 -62 24
-26 26 -29 36 -29 93 0 57 12 125 38 218 5 19 38 134 72 255 80 284 86 308 85
320 -6 41 -24 71 -65 108 -51 46 -97 64 -145 59z m3885 -821 c0 -48 -67 -132
-169 -214 -109 -87 -314 -217 -443 -283 l-47 -24 30 45 c50 74 149 180 249
266 93 79 155 122 235 162 118 58 145 67 145 48z m-2105 -1375 c-56 -95 -96
-129 -163 -139 -59 -10 -120 29 -128 82 -5 26 20 61 50 71 33 10 150 24 223
26 l42 1 -24 -41z"/>
<path d="M16385 27617 l-20 -31 46 -43 c56 -53 82 -109 104 -228 10 -50 19
-99 21 -110 2 -11 9 -47 15 -80 6 -33 13 -67 14 -75 2 -8 4 -24 4 -34 2 -35
14 -7 17 36 7 108 14 259 15 335 1 81 0 84 -27 105 -16 12 -60 52 -99 89 l-70
67 -20 -31z"/>
<path d="M14210 27500 c-65 -34 -345 -187 -390 -213 -40 -22 -180 -106 -324
-193 -65 -39 -489 -321 -546 -362 -53 -39 -291 -216 -370 -275 -30 -22 -57
-43 -60 -47 -3 -3 -25 -21 -50 -40 -47 -36 -271 -220 -280 -230 -3 -3 -36 -32
-75 -65 -38 -33 -86 -74 -105 -92 -19 -17 -46 -41 -60 -53 -134 -116 -510
-484 -664 -650 -38 -41 -90 -97 -115 -125 -43 -46 -173 -193 -212 -240 -9 -11
-36 -42 -59 -70 -57 -68 -69 -82 -115 -140 -22 -27 -43 -52 -46 -55 -3 -3 -47
-59 -98 -125 -51 -66 -100 -129 -109 -140 -33 -40 -348 -485 -383 -542 -20
-32 -75 -116 -121 -188 -111 -172 -157 -248 -279 -465 -42 -74 -87 -153 -100
-175 -50 -88 -279 -549 -339 -680 -34 -77 -75 -167 -90 -200 -155 -344 -391
-1013 -500 -1420 -12 -44 -28 -100 -35 -125 -12 -38 -99 -398 -110 -452 -22
-105 -86 -430 -89 -453 -3 -16 -14 -86 -26 -155 -25 -149 -26 -159 -35 -230
-4 -30 -8 -66 -10 -80 -10 -64 -42 -346 -50 -439 -24 -285 -32 -407 -40 -649
-4 -99 -6 -454 -4 -627 0 -27 0 -57 0 -65 -1 -13 -470 -15 -4162 -15 l-4161 0
6 -85 c33 -431 228 -872 523 -1181 294 -308 722 -521 1213 -604 52 -9 106 -18
120 -20 14 -3 57 -7 95 -11 39 -3 81 -7 95 -10 14 -2 111 -6 215 -9 264 -7
471 -15 530 -21 102 -10 263 -36 345 -56 440 -104 673 -304 825 -708 16 -41
32 -79 37 -85 4 -5 8 -15 8 -23 0 -26 110 -244 154 -306 151 -212 410 -316
820 -331 241 -8 388 -16 426 -21 313 -45 496 -128 628 -287 48 -59 103 -161
157 -292 92 -223 163 -335 266 -422 181 -152 451 -226 869 -238 448 -13 474
-15 651 -45 424 -72 645 -214 910 -585 159 -223 277 -338 418 -410 78 -39 239
-86 346 -99 28 -4 66 -9 85 -12 48 -8 2700 -12 2700 -5 0 4 -10 17 -23 31 -12
14 -42 50 -67 80 -25 30 -50 60 -55 66 -6 6 -27 30 -46 54 -18 23 -62 76 -97
119 -483 583 -936 1311 -1255 2011 -41 91 -87 194 -101 230 -15 36 -31 74 -36
85 -22 45 -112 281 -163 425 -195 551 -327 1071 -421 1660 -24 153 -50 347
-61 465 -3 33 -8 78 -10 100 -4 37 -10 117 -20 240 -26 327 -26 931 0 1300 5
71 15 192 21 245 2 25 7 68 10 95 3 28 7 66 9 85 3 19 7 53 10 75 12 101 17
137 31 230 20 130 22 139 33 199 6 28 13 68 15 88 3 21 10 57 15 80 6 24 12
56 15 72 13 71 28 143 36 171 5 17 11 44 13 60 7 41 82 338 118 465 167 580
381 1127 647 1649 93 184 128 248 232 431 84 146 312 513 330 530 3 3 23 32
44 65 45 68 275 387 285 395 4 3 18 21 31 40 13 19 27 37 30 40 3 3 52 64 110
135 57 72 109 135 115 141 5 7 32 38 60 70 169 198 570 616 691 721 12 10 63
56 114 103 117 107 133 121 162 144 13 10 50 42 83 71 105 90 305 248 448 353
137 100 138 102 110 112 -15 5 -41 16 -56 25 -16 8 -33 15 -39 15 -22 0 -176
109 -234 166 -241 235 -272 487 -84 697 61 70 223 151 339 172 19 3 38 8 43
11 16 10 163 6 208 -5 73 -19 152 -63 201 -113 l46 -47 20 27 c20 28 132 102
152 102 14 0 14 35 0 125 -6 39 -12 79 -13 90 -9 56 -39 209 -56 275 -10 41
-21 86 -24 100 -5 25 -71 267 -107 395 -11 39 -22 79 -24 90 -3 11 -11 39 -18
62 l-12 42 -35 -19z"/>
<path d="M20714 27183 c-49 -110 -53 -117 -112 -222 -29 -51 -51 -95 -49 -97
7 -8 120 -24 126 -18 3 2 6 28 6 57 4 102 40 290 66 339 5 10 7 18 4 18 -3 0
-22 -35 -41 -77z"/>
<path d="M25419 26688 c-53 -165 -219 -358 -427 -497 -62 -42 -249 -140 -372
-195 -172 -77 -332 -158 -350 -176 -14 -14 -20 -33 -20 -62 0 -54 11 -72 38
-64 30 10 157 96 222 150 30 25 62 46 72 46 9 0 19 4 23 9 10 17 122 4 171
-20 62 -29 134 -101 168 -166 61 -120 60 -235 -3 -323 -37 -51 -168 -175 -228
-217 -29 -20 -53 -39 -53 -42 0 -3 19 -19 42 -35 22 -16 67 -50 98 -75 32 -25
75 -59 96 -76 21 -16 52 -42 69 -56 16 -14 43 -37 59 -50 34 -27 172 -147 231
-199 243 -214 593 -573 864 -885 42 -48 204 -246 226 -276 11 -15 49 -65 85
-111 159 -202 429 -598 565 -828 37 -63 76 -127 86 -142 11 -15 19 -30 19 -33
0 -3 10 -22 23 -43 73 -117 300 -566 396 -782 40 -91 79 -178 86 -195 52 -118
204 -523 244 -650 12 -38 26 -79 31 -90 19 -48 147 -493 156 -545 3 -14 8 -34
11 -45 4 -11 8 -24 9 -30 1 -5 16 -69 33 -142 17 -72 32 -142 35 -155 3 -13
10 -48 16 -78 16 -82 58 -309 65 -355 3 -22 10 -67 15 -100 14 -97 18 -124 34
-250 9 -66 18 -149 21 -185 3 -36 8 -76 10 -90 2 -14 6 -68 10 -120 3 -52 8
-113 10 -135 23 -236 23 -910 0 -1195 -3 -30 -9 -118 -15 -195 -6 -77 -13
-156 -15 -175 -3 -19 -12 -96 -20 -170 -50 -432 -159 -976 -285 -1415 -81
-283 -274 -843 -330 -960 -5 -11 -32 -72 -58 -135 -86 -202 -104 -241 -214
-462 -270 -544 -523 -955 -897 -1458 -63 -85 -118 -157 -121 -160 -3 -3 -35
-41 -70 -85 -60 -73 -224 -266 -306 -358 -19 -21 -34 -42 -34 -46 0 -4 606 -7
1348 -6 1193 2 1361 4 1466 19 65 9 127 21 137 27 11 5 19 7 19 4 0 -12 198
68 264 106 102 61 223 188 356 374 184 257 298 364 485 454 120 59 224 93 365
120 190 37 271 44 702 56 239 7 392 27 544 70 159 46 276 110 371 203 86 84
140 178 237 407 54 129 120 244 173 301 172 186 441 268 889 273 84 1 169 4
190 6 22 2 73 6 114 10 208 18 405 88 532 189 115 92 187 208 298 486 112 278
167 371 290 491 94 92 235 175 385 227 121 42 330 86 460 97 39 4 76 8 83 11
8 2 87 6 175 9 89 3 243 7 342 10 480 14 866 102 1210 274 467 233 812 648
963 1157 44 147 72 300 75 400 l2 89 -4175 0 -4175 0 0 350 c-1 302 -11 666
-20 715 -2 9 -6 67 -10 130 -4 62 -8 121 -10 129 -1 9 -6 54 -10 101 -3 47 -9
99 -11 115 -3 17 -7 46 -9 65 -12 113 -18 159 -36 285 -11 77 -24 166 -30 198
-6 32 -12 70 -14 85 -3 25 -18 113 -30 172 -3 14 -9 50 -15 80 -21 114 -57
289 -75 360 -8 30 -16 66 -18 80 -4 23 -69 273 -116 450 -11 41 -34 120 -52
175 -17 55 -34 114 -39 130 -8 35 -137 420 -149 450 -5 11 -19 47 -31 80 -12
33 -26 69 -30 80 -5 11 -33 83 -63 160 -81 207 -252 600 -305 702 -6 10 -47
92 -92 183 -84 168 -130 255 -205 390 -23 41 -54 97 -69 123 -107 194 -386
633 -556 877 -89 127 -309 418 -419 555 -97 120 -258 313 -271 325 -3 3 -36
41 -75 85 -38 43 -77 87 -85 95 -8 9 -41 45 -74 81 -161 175 -543 552 -711
700 -27 24 -70 62 -95 85 -88 79 -246 212 -360 303 -63 51 -123 99 -134 108
-40 32 -405 303 -409 303 -2 0 -10 -19 -18 -42z"/>
<path d="M19167 26454 c-1 -1 -112 -4 -247 -8 -135 -4 -261 -8 -280 -10 -19
-3 -78 -7 -130 -11 -52 -4 -106 -8 -120 -10 -14 -2 -59 -7 -100 -10 -41 -4
-83 -9 -93 -11 -10 -2 -46 -6 -80 -9 -34 -3 -73 -8 -87 -10 -14 -2 -45 -7 -70
-10 -25 -4 -57 -8 -72 -11 -16 -2 -40 -6 -55 -8 -771 -124 -1554 -360 -2229
-671 -97 -45 -484 -237 -539 -268 -22 -12 -71 -40 -110 -61 -181 -101 -362
-211 -559 -342 -65 -43 -126 -83 -135 -89 -9 -5 -18 -12 -21 -15 -3 -3 -27
-21 -55 -40 -59 -40 -237 -171 -280 -205 -26 -20 -86 -66 -120 -92 -9 -7 -65
-53 -140 -115 -53 -43 -161 -135 -175 -148 -9 -8 -56 -51 -106 -95 -109 -97
-513 -500 -611 -611 -122 -137 -221 -254 -325 -384 -55 -69 -109 -136 -120
-150 -27 -34 -182 -247 -236 -323 -38 -54 -148 -220 -217 -327 -63 -97 -182
-297 -265 -445 -41 -73 -234 -446 -235 -455 -1 -3 -15 -34 -32 -70 -73 -156
-114 -250 -190 -435 -57 -140 -171 -442 -177 -470 -1 -5 -16 -53 -33 -105 -57
-172 -152 -503 -169 -590 -3 -14 -14 -61 -26 -104 -11 -43 -21 -88 -23 -100
-2 -12 -10 -53 -18 -91 -21 -93 -37 -179 -71 -375 -10 -58 -38 -260 -51 -365
-3 -27 -8 -63 -10 -80 -2 -16 -7 -59 -10 -95 -3 -36 -8 -92 -11 -125 -11 -130
-13 -166 -20 -325 -13 -283 -8 -816 11 -1030 2 -25 6 -76 10 -115 3 -38 8 -88
10 -110 2 -22 7 -67 10 -100 4 -33 8 -73 10 -90 3 -16 9 -68 15 -115 6 -47 13
-96 15 -110 3 -14 9 -56 15 -95 11 -76 13 -87 36 -215 9 -47 18 -96 20 -110
54 -302 200 -850 313 -1170 86 -245 192 -515 258 -658 18 -39 33 -74 33 -77 0
-21 239 -491 345 -679 47 -85 85 -150 95 -166 5 -8 28 -46 51 -85 204 -337
601 -884 815 -1125 17 -19 69 -78 115 -130 46 -52 106 -120 134 -150 80 -88
456 -459 530 -525 38 -33 73 -65 79 -70 28 -26 229 -197 301 -256 157 -128
370 -286 568 -422 90 -62 523 -337 531 -337 2 0 64 -34 137 -76 187 -105 568
-294 729 -362 19 -8 53 -22 75 -32 274 -124 877 -333 1181 -409 21 -5 55 -14
74 -19 53 -14 302 -73 330 -79 14 -2 66 -13 115 -23 50 -10 106 -21 125 -24
39 -6 72 -12 145 -26 50 -9 103 -18 160 -26 17 -2 45 -6 63 -9 18 -3 54 -7 80
-10 26 -3 81 -10 122 -15 129 -16 163 -19 240 -25 41 -3 89 -8 105 -10 203
-27 1060 -27 1347 0 24 2 72 6 108 10 121 10 175 16 205 20 17 2 57 7 90 11
33 3 69 8 80 10 11 2 43 6 70 10 28 3 88 12 135 20 47 8 101 17 120 20 19 3
49 7 65 10 71 11 419 85 515 109 58 15 113 28 123 30 62 13 402 114 558 166
479 159 998 385 1408 613 46 25 87 46 92 46 5 0 9 5 9 10 0 6 5 10 12 10 36 0
725 441 863 553 6 4 35 26 65 48 30 22 64 48 75 57 11 10 36 28 55 42 19 13
37 27 40 30 3 3 39 33 80 65 72 57 237 194 270 225 9 8 47 42 84 75 200 175
512 487 681 680 33 37 67 75 76 84 43 43 286 342 379 466 58 77 107 142 110
145 23 23 326 481 409 619 194 321 470 861 551 1076 6 16 18 43 25 60 78 168
321 867 350 1010 2 6 13 46 25 90 12 44 23 85 24 90 1 6 5 19 9 30 3 11 8 31
11 45 2 14 12 57 21 95 9 39 19 81 21 95 3 14 9 39 14 55 4 17 11 46 14 65 3
19 8 46 11 60 3 14 8 39 10 55 3 17 8 37 10 45 2 8 7 31 10 50 3 19 10 58 15
85 5 28 12 70 15 95 3 25 8 56 11 70 2 14 6 40 9 58 2 18 6 45 9 60 3 15 8 56
12 92 3 36 8 73 10 83 1 10 6 49 9 87 3 38 8 79 10 91 2 11 7 67 10 122 4 56
8 118 10 137 22 214 21 866 0 1145 -2 28 -7 88 -10 135 -3 47 -8 96 -10 110
-2 14 -6 57 -10 95 -3 39 -10 99 -15 135 -5 36 -11 90 -15 120 -13 111 -62
409 -85 520 -5 25 -12 56 -14 70 -11 66 -92 404 -136 565 -43 156 -135 451
-185 595 -43 119 -88 239 -106 277 -10 24 -19 45 -19 48 0 24 -173 409 -287
640 -238 481 -578 1020 -915 1450 -43 55 -89 113 -101 129 -12 15 -27 33 -32
40 -6 6 -50 58 -99 116 -281 334 -622 679 -946 959 -47 40 -96 83 -110 95
-148 131 -758 586 -786 586 -3 0 -10 5 -17 10 -35 31 -280 182 -470 291 l-119
68 -36 -72 c-47 -96 -105 -180 -157 -230 l-42 -41 44 -28 c24 -15 46 -28 48
-28 5 0 34 -17 220 -129 154 -93 140 -84 264 -165 171 -112 539 -376 589 -424
8 -7 30 -25 50 -40 21 -15 39 -29 42 -32 3 -3 59 -50 125 -105 66 -55 129
-108 140 -120 12 -11 59 -54 105 -95 157 -138 547 -537 656 -670 16 -19 36
-42 44 -50 21 -20 180 -215 265 -325 226 -291 497 -698 671 -1010 79 -141 96
-174 203 -390 182 -368 304 -664 438 -1064 46 -139 86 -261 88 -270 1 -9 9
-36 16 -61 7 -25 13 -49 15 -55 1 -5 9 -35 18 -66 9 -31 18 -65 21 -75 2 -11
11 -44 19 -76 8 -31 17 -67 20 -80 2 -12 16 -72 30 -133 22 -97 59 -285 72
-362 2 -16 7 -44 10 -63 4 -19 8 -44 9 -55 2 -11 8 -49 13 -85 6 -36 13 -87
17 -115 3 -27 8 -61 10 -75 3 -24 12 -101 20 -180 2 -19 7 -73 10 -119 4 -47
8 -92 10 -100 10 -52 19 -380 19 -651 -1 -332 -6 -453 -29 -720 -12 -140 -15
-167 -19 -190 -3 -14 -8 -52 -11 -85 -3 -33 -8 -71 -10 -85 -2 -14 -6 -41 -9
-60 -10 -77 -19 -136 -22 -155 -3 -11 -7 -36 -10 -55 -2 -19 -9 -57 -14 -85
-5 -27 -12 -66 -15 -85 -3 -19 -8 -42 -10 -50 -2 -8 -7 -29 -10 -46 -2 -17
-21 -102 -41 -190 -19 -87 -37 -166 -39 -174 -8 -38 -97 -355 -124 -441 -58
-188 -167 -494 -217 -610 -13 -31 -24 -60 -24 -63 0 -4 -11 -32 -25 -62 -14
-30 -25 -57 -25 -59 0 -5 -21 -52 -103 -230 -253 -554 -633 -1172 -1016 -1655
-41 -52 -221 -270 -236 -286 -5 -6 -37 -42 -70 -80 -176 -201 -601 -625 -726
-723 -14 -11 -41 -34 -60 -52 -19 -17 -68 -59 -109 -93 -41 -33 -77 -63 -80
-66 -8 -10 -220 -173 -320 -247 -122 -89 -333 -235 -455 -312 -27 -17 -57 -36
-65 -41 -42 -28 -111 -70 -115 -70 -3 0 -28 -15 -57 -33 -77 -49 -323 -184
-468 -257 -118 -59 -165 -83 -200 -102 -28 -15 -315 -140 -350 -153 -19 -7
-60 -24 -90 -38 -128 -58 -586 -218 -785 -273 -152 -43 -464 -121 -575 -144
-58 -12 -114 -24 -125 -26 -50 -10 -196 -36 -255 -45 -36 -5 -72 -11 -80 -14
-8 -2 -40 -7 -70 -10 -30 -3 -62 -8 -70 -10 -8 -2 -42 -6 -75 -10 -33 -3 -77
-8 -97 -11 -21 -2 -55 -6 -75 -8 -35 -5 -113 -11 -237 -21 -255 -21 -875 -27
-1126 -11 -231 14 -253 16 -380 31 -19 2 -62 7 -95 10 -33 4 -75 8 -92 11 -18
2 -50 6 -70 9 -59 7 -126 17 -148 21 -11 3 -40 7 -65 10 -25 3 -52 7 -61 10
-9 2 -32 7 -50 9 -19 3 -45 7 -59 10 -14 3 -41 8 -60 11 -602 110 -1274 321
-1855 584 -161 73 -536 262 -576 291 -15 10 -30 19 -34 19 -18 0 -488 287
-493 301 -2 5 -8 9 -13 9 -19 0 -378 255 -569 405 -635 498 -1211 1102 -1672
1755 -84 120 -215 314 -243 362 -5 10 -49 82 -96 160 -170 281 -329 587 -459
885 -33 76 -65 147 -70 158 -33 71 -162 420 -221 596 -93 283 -216 744 -252
949 -3 14 -16 86 -30 160 -14 74 -28 155 -32 180 -4 25 -9 59 -11 75 -2 17 -6
41 -9 55 -3 14 -7 43 -10 65 -2 22 -7 58 -10 80 -3 22 -8 65 -10 95 -3 30 -8
71 -10 90 -2 19 -7 67 -10 105 -4 39 -8 86 -10 105 -27 295 -27 1011 0 1305 2
22 6 72 10 110 3 39 8 84 10 100 3 17 7 55 10 85 4 52 39 307 49 360 3 14 7
43 10 65 4 22 11 63 16 90 5 28 12 61 14 75 21 118 54 261 98 435 16 66 32
129 34 140 4 23 47 172 93 320 80 264 233 672 339 905 16 36 39 88 52 115 50
111 212 428 283 555 65 117 90 161 142 248 254 426 596 885 970 1302 71 80
498 503 574 570 40 36 79 70 85 75 91 81 164 143 346 289 202 162 547 404 768
537 40 24 91 56 115 71 23 15 48 31 56 35 8 3 65 35 125 71 149 85 616 316
796 392 419 178 963 357 1315 434 6 1 19 5 30 9 11 3 31 8 45 11 14 2 90 19
170 36 80 17 161 33 180 36 43 6 78 12 105 18 11 2 40 7 65 11 25 4 54 9 65
11 11 2 39 6 62 9 62 7 115 15 138 20 11 2 52 7 90 10 39 4 84 9 100 11 17 2
57 6 90 9 33 3 78 8 100 10 39 4 143 11 335 20 134 7 617 8 725 1 50 -3 133
-8 185 -11 203 -12 298 -22 670 -71 189 -25 606 -109 834 -169 72 -19 142 -37
156 -41 115 -29 593 -184 720 -232 14 -5 28 -10 33 -11 4 0 20 -7 37 -16 16
-8 33 -15 37 -15 5 0 7 36 6 80 -3 110 36 241 90 308 12 15 -6 32 -35 32 -9 0
-19 4 -22 9 -3 5 -18 12 -33 16 -16 3 -86 28 -158 55 -357 133 -980 297 -1366
360 -35 5 -74 12 -85 14 -12 2 -39 7 -60 10 -22 4 -66 11 -99 16 -33 5 -82 12
-110 15 -27 3 -66 7 -85 10 -78 11 -109 15 -205 24 -117 12 -215 20 -305 26
-103 7 -588 22 -593 19z"/>
<path d="M14294 25928 c-12 -20 -56 -48 -102 -63 l-37 -14 37 -15 c41 -18 145
-24 157 -10 4 5 -5 33 -19 63 -21 41 -29 50 -36 39z"/>
<path d="M19207 25704 c-1 -1 -119 -4 -262 -8 -143 -3 -273 -8 -290 -10 -16
-3 -70 -7 -120 -10 -49 -4 -101 -8 -115 -10 -14 -3 -59 -7 -100 -11 -41 -4
-84 -9 -95 -11 -11 -1 -47 -6 -80 -10 -33 -3 -69 -8 -80 -10 -11 -3 -40 -7
-65 -10 -25 -3 -52 -7 -60 -9 -8 -2 -33 -7 -55 -10 -40 -5 -63 -9 -115 -20
-14 -2 -41 -7 -60 -10 -19 -3 -42 -8 -50 -10 -8 -2 -31 -7 -50 -10 -133 -23
-489 -112 -705 -177 -202 -60 -576 -192 -682 -239 -23 -11 -44 -19 -47 -19 -3
0 -35 -13 -70 -30 -36 -16 -91 -40 -123 -54 -197 -83 -506 -239 -731 -370
-216 -125 -286 -168 -290 -178 -2 -4 -8 -8 -13 -8 -19 0 -403 -264 -549 -377
-176 -136 -452 -363 -480 -393 -3 -3 -36 -35 -75 -69 -516 -469 -1012 -1062
-1380 -1651 -241 -385 -446 -781 -606 -1167 -114 -278 -214 -560 -294 -833
-32 -108 -108 -405 -119 -460 -2 -14 -11 -56 -20 -95 -9 -38 -18 -83 -21 -100
-3 -16 -12 -64 -20 -105 -24 -131 -26 -144 -30 -170 -2 -14 -10 -70 -19 -125
-8 -55 -18 -122 -21 -150 -3 -27 -8 -66 -10 -85 -7 -51 -13 -106 -20 -190 -3
-41 -8 -86 -10 -100 -26 -178 -26 -985 0 -1265 25 -274 61 -566 81 -670 2 -11
11 -60 19 -110 45 -263 150 -694 229 -940 75 -233 86 -269 96 -290 5 -11 19
-49 31 -85 22 -67 130 -342 154 -395 43 -91 85 -187 85 -191 0 -8 215 -434
244 -484 14 -25 29 -52 33 -60 3 -8 33 -59 65 -113 32 -55 58 -101 58 -103 0
-11 216 -344 338 -519 82 -117 355 -473 381 -495 4 -3 26 -30 51 -60 25 -30
49 -60 55 -66 5 -6 42 -46 80 -90 99 -112 480 -495 578 -581 45 -40 100 -89
122 -109 87 -79 309 -257 470 -378 698 -525 1496 -936 2345 -1207 133 -43 483
-141 545 -153 11 -3 81 -18 155 -34 74 -17 153 -33 175 -37 22 -3 56 -10 75
-15 19 -5 60 -12 90 -15 30 -4 57 -8 60 -10 3 -2 23 -6 45 -9 230 -32 261 -36
385 -51 127 -15 373 -34 520 -40 112 -5 651 -5 730 0 246 16 364 25 450 36 41
5 102 12 135 14 33 3 85 10 115 15 30 5 75 11 100 14 25 4 56 8 70 11 14 2 66
11 115 19 50 9 104 18 120 21 136 27 249 51 355 76 69 17 132 32 141 34 56 12
438 126 559 167 273 93 567 210 778 309 45 21 84 39 87 40 10 1 347 175 440
227 235 129 517 308 755 477 85 60 162 115 170 122 8 7 53 42 99 78 124 96
348 279 361 295 3 4 48 44 100 90 96 85 434 419 525 520 102 113 278 319 325
380 39 51 60 77 75 94 27 31 90 113 172 226 346 478 648 1007 867 1522 48 112
91 212 96 223 36 83 178 494 223 645 46 154 132 482 143 544 3 17 16 83 29
146 70 336 110 628 140 1015 24 318 24 863 0 1155 -2 25 -6 79 -10 120 -8 95
-12 141 -21 210 -3 30 -7 66 -9 80 -6 52 -35 253 -40 274 -3 11 -7 35 -9 51
-7 54 -27 168 -31 174 -2 4 -6 27 -10 51 -5 36 -37 183 -81 372 -3 13 -9 39
-14 58 -15 63 -98 353 -133 460 -86 267 -202 567 -317 825 -33 76 -238 488
-265 533 -18 32 -45 80 -60 107 -15 28 -58 102 -96 165 -86 142 -80 133 -159
254 -36 56 -69 108 -75 117 -69 113 -448 612 -542 714 -10 11 -31 36 -47 55
-101 123 -466 499 -636 655 -184 169 -432 373 -650 533 -69 51 -130 96 -136
101 -40 32 -364 243 -489 319 -621 374 -1234 638 -1980 851 -68 20 -374 95
-425 105 -14 3 -50 10 -80 16 -30 6 -66 13 -80 16 -14 2 -59 11 -100 19 -41 8
-95 17 -120 20 -24 4 -47 8 -50 10 -3 2 -30 6 -60 9 -30 3 -66 8 -79 11 -14 2
-47 7 -75 11 -28 3 -67 8 -86 10 -62 8 -124 14 -175 19 -27 2 -75 6 -105 10
-91 9 -175 14 -375 20 -104 4 -212 7 -238 8 -27 1 -49 2 -50 1z m174 -7427
c137 -52 242 -145 301 -269 45 -92 59 -151 59 -247 1 -206 -109 -390 -292
-486 -310 -163 -685 -1 -786 339 -21 70 -24 181 -7 262 42 200 206 369 407
420 82 21 237 12 318 -19z"/>
</g>
</svg>
